<mxfile host="app.diagrams.net" agent="Mozilla/5.0 (Windows NT 10.0; Win64; x64) AppleWebKit/537.36 (KHTML, like Gecko) Chrome/129.0.0.0 Safari/537.36" version="24.8.0">
  <diagram name="Page-1" id="7h4WcRqsXK-6cx2vI6sU">
    <mxGraphModel dx="794" dy="1708" grid="1" gridSize="10" guides="1" tooltips="1" connect="1" arrows="1" fold="1" page="1" pageScale="1" pageWidth="827" pageHeight="1169" math="0" shadow="0">
      <root>
        <mxCell id="0" />
        <mxCell id="1" parent="0" />
        <mxCell id="73Ai4wEuDDb9qYBm-aEW-9" value="&lt;div style=&quot;background-color: rgb(31, 31, 31); font-family: Consolas, &amp;quot;Courier New&amp;quot;, monospace; font-weight: normal; font-size: 14px; line-height: 19px; white-space: pre;&quot;&gt;&lt;div style=&quot;color: rgb(204, 204, 204);&quot;&gt;&lt;span style=&quot;color: #c586c0;&quot;&gt;@mixin&lt;/span&gt;&lt;span style=&quot;color: #cccccc;&quot;&gt; &lt;/span&gt;&lt;span style=&quot;color: #dcdcaa;&quot;&gt;generate-flex-classes&lt;/span&gt;&lt;span style=&quot;color: #cccccc;&quot;&gt;(&lt;/span&gt;&lt;span style=&quot;color: #9cdcfe;&quot;&gt;$breakpoints&lt;/span&gt;&lt;span style=&quot;color: #cccccc;&quot;&gt;) {&lt;/span&gt;&lt;/div&gt;&lt;div style=&quot;color: rgb(204, 204, 204);&quot;&gt;&lt;span style=&quot;color: #cccccc;&quot;&gt;&amp;nbsp; &amp;nbsp; &lt;/span&gt;&lt;span style=&quot;color: #6a9955;&quot;&gt;// Generate flex classes&lt;/span&gt;&lt;/div&gt;&lt;div style=&quot;color: rgb(204, 204, 204);&quot;&gt;&lt;span style=&quot;color: #cccccc;&quot;&gt;&amp;nbsp; &amp;nbsp; &lt;/span&gt;&lt;span style=&quot;color: #c586c0;&quot;&gt;@for&lt;/span&gt;&lt;span style=&quot;color: #cccccc;&quot;&gt; &lt;/span&gt;&lt;span style=&quot;color: #9cdcfe;&quot;&gt;$i&lt;/span&gt;&lt;span style=&quot;color: #cccccc;&quot;&gt; &lt;/span&gt;&lt;span style=&quot;color: #c586c0;&quot;&gt;from&lt;/span&gt;&lt;span style=&quot;color: #cccccc;&quot;&gt; &lt;/span&gt;&lt;span style=&quot;color: #b5cea8;&quot;&gt;0&lt;/span&gt;&lt;span style=&quot;color: #cccccc;&quot;&gt; &lt;/span&gt;&lt;span style=&quot;color: #c586c0;&quot;&gt;through&lt;/span&gt;&lt;span style=&quot;color: #cccccc;&quot;&gt; &lt;/span&gt;&lt;span style=&quot;color: #b5cea8;&quot;&gt;100&lt;/span&gt;&lt;span style=&quot;color: #cccccc;&quot;&gt; {&lt;/span&gt;&lt;/div&gt;&lt;div style=&quot;color: rgb(204, 204, 204);&quot;&gt;&lt;span style=&quot;color: #cccccc;&quot;&gt;&amp;nbsp; &amp;nbsp; &amp;nbsp; &amp;nbsp; &lt;/span&gt;&lt;span style=&quot;color: #d7ba7d;&quot;&gt;.fx-flex-&lt;/span&gt;&lt;span style=&quot;color: #9cdcfe;&quot;&gt;#{$i}&lt;/span&gt;&lt;span style=&quot;color: #cccccc;&quot;&gt; {&lt;/span&gt;&lt;/div&gt;&lt;div style=&quot;color: rgb(204, 204, 204);&quot;&gt;&lt;span style=&quot;color: #cccccc;&quot;&gt;&amp;nbsp; &amp;nbsp; &amp;nbsp; &amp;nbsp; &amp;nbsp; &amp;nbsp; &lt;/span&gt;&lt;span style=&quot;color: #c586c0;&quot;&gt;@include&lt;/span&gt;&lt;span style=&quot;color: #cccccc;&quot;&gt; &lt;/span&gt;&lt;span style=&quot;color: #dcdcaa;&quot;&gt;flex&lt;/span&gt;&lt;span style=&quot;color: #cccccc;&quot;&gt;(&lt;/span&gt;&lt;span style=&quot;color: #b5cea8;&quot;&gt;0&lt;/span&gt;&lt;span style=&quot;color: #cccccc;&quot;&gt; &lt;/span&gt;&lt;span style=&quot;color: #b5cea8;&quot;&gt;1&lt;/span&gt;&lt;span style=&quot;color: #cccccc;&quot;&gt; &lt;/span&gt;&lt;span style=&quot;color: #9cdcfe;&quot;&gt;#{$i &lt;/span&gt;&lt;span style=&quot;color: #d4d4d4;&quot;&gt;+&lt;/span&gt;&lt;span style=&quot;color: #9cdcfe;&quot;&gt; &lt;/span&gt;&lt;span style=&quot;color: #ce9178;&quot;&gt;&#39;%&#39;&lt;/span&gt;&lt;span style=&quot;color: #9cdcfe;&quot;&gt;}&lt;/span&gt;&lt;span style=&quot;color: #cccccc;&quot;&gt;);&lt;/span&gt;&lt;/div&gt;&lt;div style=&quot;color: rgb(204, 204, 204);&quot;&gt;&lt;span style=&quot;color: #cccccc;&quot;&gt;&amp;nbsp; &amp;nbsp; &amp;nbsp; &amp;nbsp; }&lt;/span&gt;&lt;/div&gt;&lt;font color=&quot;#cccccc&quot;&gt;&lt;br&gt;&lt;/font&gt;&lt;div style=&quot;color: rgb(204, 204, 204);&quot;&gt;&lt;span style=&quot;color: #cccccc;&quot;&gt;&amp;nbsp; &amp;nbsp; &amp;nbsp; &amp;nbsp; &lt;/span&gt;&lt;span style=&quot;color: #9cdcfe;&quot;&gt;$i&lt;/span&gt;&lt;span style=&quot;color: #cccccc;&quot;&gt;: &lt;/span&gt;&lt;span style=&quot;color: #9cdcfe;&quot;&gt;$i&lt;/span&gt;&lt;span style=&quot;color: #cccccc;&quot;&gt; &lt;/span&gt;&lt;span style=&quot;color: #d4d4d4;&quot;&gt;+&lt;/span&gt;&lt;span style=&quot;color: #cccccc;&quot;&gt; &lt;/span&gt;&lt;span style=&quot;color: #b5cea8;&quot;&gt;10&lt;/span&gt;&lt;span style=&quot;color: #cccccc;&quot;&gt;;&lt;/span&gt;&lt;/div&gt;&lt;div style=&quot;color: rgb(204, 204, 204);&quot;&gt;&lt;span style=&quot;color: #cccccc;&quot;&gt;&amp;nbsp; &amp;nbsp; }&lt;/span&gt;&lt;/div&gt;&lt;font color=&quot;#cccccc&quot;&gt;&lt;br&gt;&lt;/font&gt;&lt;div style=&quot;color: rgb(204, 204, 204);&quot;&gt;&lt;span style=&quot;color: #cccccc;&quot;&gt;&amp;nbsp; &amp;nbsp; &lt;/span&gt;&lt;span style=&quot;color: #6a9955;&quot;&gt;// Generate flex classes for each breakpoint&lt;/span&gt;&lt;/div&gt;&lt;div style=&quot;color: rgb(204, 204, 204);&quot;&gt;&lt;span style=&quot;color: #cccccc;&quot;&gt;&amp;nbsp; &amp;nbsp; &lt;/span&gt;&lt;span style=&quot;color: #c586c0;&quot;&gt;@each&lt;/span&gt;&lt;span style=&quot;color: #cccccc;&quot;&gt; &lt;/span&gt;&lt;span style=&quot;color: #9cdcfe;&quot;&gt;$breakpoint&lt;/span&gt;&lt;span style=&quot;color: #cccccc;&quot;&gt; &lt;/span&gt;&lt;span style=&quot;color: #c586c0;&quot;&gt;in&lt;/span&gt;&lt;span style=&quot;color: #cccccc;&quot;&gt; &lt;/span&gt;&lt;span style=&quot;color: #9cdcfe;&quot;&gt;$breakpoints&lt;/span&gt;&lt;span style=&quot;color: #cccccc;&quot;&gt; {&lt;/span&gt;&lt;/div&gt;&lt;div style=&quot;&quot;&gt;&lt;span style=&quot;color: rgb(204, 204, 204);&quot;&gt;&amp;nbsp; &amp;nbsp; &amp;nbsp; &amp;nbsp; &lt;/span&gt;&lt;span style=&quot;color: rgb(197, 134, 192);&quot;&gt;@for&lt;/span&gt;&lt;span style=&quot;color: rgb(204, 204, 204);&quot;&gt; &lt;/span&gt;&lt;span style=&quot;color: rgb(156, 220, 254);&quot;&gt;$i&lt;/span&gt;&lt;span style=&quot;color: rgb(204, 204, 204);&quot;&gt; &lt;/span&gt;&lt;span style=&quot;color: rgb(197, 134, 192);&quot;&gt;from&lt;/span&gt;&lt;span style=&quot;color: rgb(204, 204, 204);&quot;&gt; &lt;/span&gt;&lt;font color=&quot;#b5cea8&quot;&gt;0&lt;/font&gt;&lt;span style=&quot;color: rgb(204, 204, 204);&quot;&gt; &lt;/span&gt;&lt;span style=&quot;color: rgb(197, 134, 192);&quot;&gt;through&lt;/span&gt;&lt;span style=&quot;color: rgb(204, 204, 204);&quot;&gt; &lt;/span&gt;&lt;span style=&quot;color: rgb(181, 206, 168);&quot;&gt;100&lt;/span&gt;&lt;span style=&quot;color: rgb(204, 204, 204);&quot;&gt; {&lt;/span&gt;&lt;/div&gt;&lt;div style=&quot;color: rgb(204, 204, 204);&quot;&gt;&lt;span style=&quot;color: #cccccc;&quot;&gt;&amp;nbsp; &amp;nbsp; &amp;nbsp; &amp;nbsp; &amp;nbsp; &amp;nbsp; &lt;/span&gt;&lt;span style=&quot;color: #d7ba7d;&quot;&gt;.fx-flex-&lt;/span&gt;&lt;span style=&quot;color: #9cdcfe;&quot;&gt;#{$i}&lt;/span&gt;&lt;span style=&quot;color: #d7ba7d;&quot;&gt;-&lt;/span&gt;&lt;span style=&quot;color: #9cdcfe;&quot;&gt;#{$breakpoint}&lt;/span&gt;&lt;span style=&quot;color: #cccccc;&quot;&gt; {&lt;/span&gt;&lt;/div&gt;&lt;div style=&quot;color: rgb(204, 204, 204);&quot;&gt;&lt;span style=&quot;color: #cccccc;&quot;&gt;&amp;nbsp; &amp;nbsp; &amp;nbsp; &amp;nbsp; &amp;nbsp; &amp;nbsp; &amp;nbsp; &amp;nbsp; &lt;/span&gt;&lt;span style=&quot;color: #c586c0;&quot;&gt;@include&lt;/span&gt;&lt;span style=&quot;color: #cccccc;&quot;&gt; &lt;/span&gt;&lt;span style=&quot;color: #dcdcaa;&quot;&gt;respond-to&lt;/span&gt;&lt;span style=&quot;color: #cccccc;&quot;&gt;(&lt;/span&gt;&lt;span style=&quot;color: #9cdcfe;&quot;&gt;$breakpoint&lt;/span&gt;&lt;span style=&quot;color: #cccccc;&quot;&gt;) {&lt;/span&gt;&lt;/div&gt;&lt;div style=&quot;color: rgb(204, 204, 204);&quot;&gt;&lt;span style=&quot;color: #cccccc;&quot;&gt;&amp;nbsp; &amp;nbsp; &amp;nbsp; &amp;nbsp; &amp;nbsp; &amp;nbsp; &amp;nbsp; &amp;nbsp; &amp;nbsp; &amp;nbsp; &lt;/span&gt;&lt;span style=&quot;color: #9cdcfe;&quot;&gt;flex&lt;/span&gt;&lt;span style=&quot;color: #cccccc;&quot;&gt;: &lt;/span&gt;&lt;span style=&quot;color: #b5cea8;&quot;&gt;0&lt;/span&gt;&lt;span style=&quot;color: #cccccc;&quot;&gt; &lt;/span&gt;&lt;span style=&quot;color: #b5cea8;&quot;&gt;1&lt;/span&gt;&lt;span style=&quot;color: #cccccc;&quot;&gt; &lt;/span&gt;&lt;span style=&quot;color: #9cdcfe;&quot;&gt;#{$i &lt;/span&gt;&lt;span style=&quot;color: #d4d4d4;&quot;&gt;+&lt;/span&gt;&lt;span style=&quot;color: #9cdcfe;&quot;&gt; &lt;/span&gt;&lt;span style=&quot;color: #ce9178;&quot;&gt;&#39;%&#39;&lt;/span&gt;&lt;span style=&quot;color: #9cdcfe;&quot;&gt;}&lt;/span&gt;&lt;span style=&quot;color: #cccccc;&quot;&gt;;&lt;/span&gt;&lt;/div&gt;&lt;div style=&quot;color: rgb(204, 204, 204);&quot;&gt;&lt;span style=&quot;color: #cccccc;&quot;&gt;&amp;nbsp; &amp;nbsp; &amp;nbsp; &amp;nbsp; &amp;nbsp; &amp;nbsp; &amp;nbsp; &amp;nbsp; }&lt;/span&gt;&lt;/div&gt;&lt;div style=&quot;color: rgb(204, 204, 204);&quot;&gt;&lt;span style=&quot;color: #cccccc;&quot;&gt;&amp;nbsp; &amp;nbsp; &amp;nbsp; &amp;nbsp; &amp;nbsp; &amp;nbsp; }&lt;/span&gt;&lt;/div&gt;&lt;font color=&quot;#cccccc&quot;&gt;&lt;br&gt;&lt;/font&gt;&lt;div style=&quot;color: rgb(204, 204, 204);&quot;&gt;&lt;span style=&quot;color: #cccccc;&quot;&gt;&amp;nbsp; &amp;nbsp; &amp;nbsp; &amp;nbsp; &amp;nbsp; &amp;nbsp; &lt;/span&gt;&lt;span style=&quot;color: #d7ba7d;&quot;&gt;.fx-flex-&lt;/span&gt;&lt;span style=&quot;color: #9cdcfe;&quot;&gt;#{$i}&lt;/span&gt;&lt;span style=&quot;color: #d7ba7d;&quot;&gt;-gt-&lt;/span&gt;&lt;span style=&quot;color: #9cdcfe;&quot;&gt;#{$breakpoint}&lt;/span&gt;&lt;span style=&quot;color: #cccccc;&quot;&gt; {&lt;/span&gt;&lt;/div&gt;&lt;div style=&quot;color: rgb(204, 204, 204);&quot;&gt;&lt;span style=&quot;color: #cccccc;&quot;&gt;&amp;nbsp; &amp;nbsp; &amp;nbsp; &amp;nbsp; &amp;nbsp; &amp;nbsp; &amp;nbsp; &amp;nbsp; &lt;/span&gt;&lt;span style=&quot;color: #c586c0;&quot;&gt;@include&lt;/span&gt;&lt;span style=&quot;color: #cccccc;&quot;&gt; &lt;/span&gt;&lt;span style=&quot;color: #dcdcaa;&quot;&gt;respond-to&lt;/span&gt;&lt;span style=&quot;color: #cccccc;&quot;&gt;(&lt;/span&gt;&lt;span style=&quot;color: #9cdcfe;&quot;&gt;$breakpoint&lt;/span&gt;&lt;span style=&quot;color: #cccccc;&quot;&gt;, &lt;/span&gt;&lt;span style=&quot;color: #ce9178;&quot;&gt;&#39;gt&#39;&lt;/span&gt;&lt;span style=&quot;color: #cccccc;&quot;&gt;) {&lt;/span&gt;&lt;/div&gt;&lt;div style=&quot;color: rgb(204, 204, 204);&quot;&gt;&lt;span style=&quot;color: #cccccc;&quot;&gt;&amp;nbsp; &amp;nbsp; &amp;nbsp; &amp;nbsp; &amp;nbsp; &amp;nbsp; &amp;nbsp; &amp;nbsp; &amp;nbsp; &amp;nbsp; &lt;/span&gt;&lt;span style=&quot;color: #9cdcfe;&quot;&gt;flex&lt;/span&gt;&lt;span style=&quot;color: #cccccc;&quot;&gt;: &lt;/span&gt;&lt;span style=&quot;color: #b5cea8;&quot;&gt;0&lt;/span&gt;&lt;span style=&quot;color: #cccccc;&quot;&gt; &lt;/span&gt;&lt;span style=&quot;color: #b5cea8;&quot;&gt;1&lt;/span&gt;&lt;span style=&quot;color: #cccccc;&quot;&gt; &lt;/span&gt;&lt;span style=&quot;color: #9cdcfe;&quot;&gt;#{$i &lt;/span&gt;&lt;span style=&quot;color: #d4d4d4;&quot;&gt;+&lt;/span&gt;&lt;span style=&quot;color: #9cdcfe;&quot;&gt; &lt;/span&gt;&lt;span style=&quot;color: #ce9178;&quot;&gt;&#39;%&#39;&lt;/span&gt;&lt;span style=&quot;color: #9cdcfe;&quot;&gt;}&lt;/span&gt;&lt;span style=&quot;color: #cccccc;&quot;&gt;;&lt;/span&gt;&lt;/div&gt;&lt;div style=&quot;color: rgb(204, 204, 204);&quot;&gt;&lt;span style=&quot;color: #cccccc;&quot;&gt;&amp;nbsp; &amp;nbsp; &amp;nbsp; &amp;nbsp; &amp;nbsp; &amp;nbsp; &amp;nbsp; &amp;nbsp; }&lt;/span&gt;&lt;/div&gt;&lt;div style=&quot;color: rgb(204, 204, 204);&quot;&gt;&lt;span style=&quot;color: #cccccc;&quot;&gt;&amp;nbsp; &amp;nbsp; &amp;nbsp; &amp;nbsp; &amp;nbsp; &amp;nbsp; }&lt;/span&gt;&lt;/div&gt;&lt;font color=&quot;#cccccc&quot;&gt;&lt;br&gt;&lt;/font&gt;&lt;div style=&quot;color: rgb(204, 204, 204);&quot;&gt;&lt;span style=&quot;color: #cccccc;&quot;&gt;&amp;nbsp; &amp;nbsp; &amp;nbsp; &amp;nbsp; &amp;nbsp; &amp;nbsp; &lt;/span&gt;&lt;span style=&quot;color: #d7ba7d;&quot;&gt;.fx-flex-&lt;/span&gt;&lt;span style=&quot;color: #9cdcfe;&quot;&gt;#{$i}&lt;/span&gt;&lt;span style=&quot;color: #d7ba7d;&quot;&gt;-lt-&lt;/span&gt;&lt;span style=&quot;color: #9cdcfe;&quot;&gt;#{$breakpoint}&lt;/span&gt;&lt;span style=&quot;color: #cccccc;&quot;&gt; {&lt;/span&gt;&lt;/div&gt;&lt;div style=&quot;color: rgb(204, 204, 204);&quot;&gt;&lt;span style=&quot;color: #cccccc;&quot;&gt;&amp;nbsp; &amp;nbsp; &amp;nbsp; &amp;nbsp; &amp;nbsp; &amp;nbsp; &amp;nbsp; &amp;nbsp; &lt;/span&gt;&lt;span style=&quot;color: #c586c0;&quot;&gt;@include&lt;/span&gt;&lt;span style=&quot;color: #cccccc;&quot;&gt; &lt;/span&gt;&lt;span style=&quot;color: #dcdcaa;&quot;&gt;respond-to&lt;/span&gt;&lt;span style=&quot;color: #cccccc;&quot;&gt;(&lt;/span&gt;&lt;span style=&quot;color: #9cdcfe;&quot;&gt;$breakpoint&lt;/span&gt;&lt;span style=&quot;color: #cccccc;&quot;&gt;, &lt;/span&gt;&lt;span style=&quot;color: #ce9178;&quot;&gt;&#39;lt&#39;&lt;/span&gt;&lt;span style=&quot;color: #cccccc;&quot;&gt;) {&lt;/span&gt;&lt;/div&gt;&lt;div style=&quot;color: rgb(204, 204, 204);&quot;&gt;&lt;span style=&quot;color: #cccccc;&quot;&gt;&amp;nbsp; &amp;nbsp; &amp;nbsp; &amp;nbsp; &amp;nbsp; &amp;nbsp; &amp;nbsp; &amp;nbsp; &amp;nbsp; &amp;nbsp; &lt;/span&gt;&lt;span style=&quot;color: #9cdcfe;&quot;&gt;flex&lt;/span&gt;&lt;span style=&quot;color: #cccccc;&quot;&gt;: &lt;/span&gt;&lt;span style=&quot;color: #b5cea8;&quot;&gt;0&lt;/span&gt;&lt;span style=&quot;color: #cccccc;&quot;&gt; &lt;/span&gt;&lt;span style=&quot;color: #b5cea8;&quot;&gt;1&lt;/span&gt;&lt;span style=&quot;color: #cccccc;&quot;&gt; &lt;/span&gt;&lt;span style=&quot;color: #9cdcfe;&quot;&gt;#{$i &lt;/span&gt;&lt;span style=&quot;color: #d4d4d4;&quot;&gt;+&lt;/span&gt;&lt;span style=&quot;color: #9cdcfe;&quot;&gt; &lt;/span&gt;&lt;span style=&quot;color: #ce9178;&quot;&gt;&#39;%&#39;&lt;/span&gt;&lt;span style=&quot;color: #9cdcfe;&quot;&gt;}&lt;/span&gt;&lt;span style=&quot;color: #cccccc;&quot;&gt;;&lt;/span&gt;&lt;/div&gt;&lt;div style=&quot;color: rgb(204, 204, 204);&quot;&gt;&lt;span style=&quot;color: #cccccc;&quot;&gt;&amp;nbsp; &amp;nbsp; &amp;nbsp; &amp;nbsp; &amp;nbsp; &amp;nbsp; &amp;nbsp; &amp;nbsp; }&lt;/span&gt;&lt;/div&gt;&lt;div style=&quot;color: rgb(204, 204, 204);&quot;&gt;&lt;span style=&quot;color: #cccccc;&quot;&gt;&amp;nbsp; &amp;nbsp; &amp;nbsp; &amp;nbsp; &amp;nbsp; &amp;nbsp; }&lt;/span&gt;&lt;/div&gt;&lt;div style=&quot;color: rgb(204, 204, 204);&quot;&gt;&lt;span style=&quot;color: #cccccc;&quot;&gt;&amp;nbsp; &amp;nbsp; &amp;nbsp; &amp;nbsp; &amp;nbsp; &amp;nbsp; &lt;/span&gt;&lt;span style=&quot;color: #9cdcfe;&quot;&gt;$i&lt;/span&gt;&lt;span style=&quot;color: #cccccc;&quot;&gt;: &lt;/span&gt;&lt;span style=&quot;color: #9cdcfe;&quot;&gt;$i&lt;/span&gt;&lt;span style=&quot;color: #cccccc;&quot;&gt; &lt;/span&gt;&lt;span style=&quot;color: #d4d4d4;&quot;&gt;+&lt;/span&gt;&lt;span style=&quot;color: #cccccc;&quot;&gt; &lt;/span&gt;&lt;span style=&quot;color: #b5cea8;&quot;&gt;10&lt;/span&gt;&lt;span style=&quot;color: #cccccc;&quot;&gt;;&lt;/span&gt;&lt;/div&gt;&lt;div style=&quot;color: rgb(204, 204, 204);&quot;&gt;&lt;span style=&quot;color: #cccccc;&quot;&gt;&amp;nbsp; &amp;nbsp; &amp;nbsp; &amp;nbsp; }&lt;/span&gt;&lt;/div&gt;&lt;div style=&quot;color: rgb(204, 204, 204);&quot;&gt;&lt;span style=&quot;color: #cccccc;&quot;&gt;&amp;nbsp; &amp;nbsp; }&lt;/span&gt;&lt;/div&gt;&lt;div style=&quot;color: rgb(204, 204, 204);&quot;&gt;&lt;span style=&quot;color: #cccccc;&quot;&gt;}&lt;/span&gt;&lt;/div&gt;&lt;/div&gt;" style="text;whiteSpace=wrap;html=1;" parent="1" vertex="1">
          <mxGeometry x="650" y="-480" width="480" height="670" as="geometry" />
        </mxCell>
        <mxCell id="73Ai4wEuDDb9qYBm-aEW-10" value="&lt;div style=&quot;color: #cccccc;background-color: #1f1f1f;font-family: Consolas, &#39;Courier New&#39;, monospace;font-weight: normal;font-size: 14px;line-height: 19px;white-space: pre;&quot;&gt;&lt;div&gt;&lt;span style=&quot;color: #9cdcfe;&quot;&gt;$breakpoints&lt;/span&gt;&lt;span style=&quot;color: #cccccc;&quot;&gt;: (&lt;/span&gt;&lt;/div&gt;&lt;div&gt;&lt;span style=&quot;color: #cccccc;&quot;&gt;&amp;nbsp; &amp;nbsp; &lt;/span&gt;&lt;span style=&quot;color: #ce9178;&quot;&gt;&#39;xs&#39;&lt;/span&gt;&lt;span style=&quot;color: #cccccc;&quot;&gt;: &lt;/span&gt;&lt;span style=&quot;color: #b5cea8;&quot;&gt;0px&lt;/span&gt;&lt;span style=&quot;color: #cccccc;&quot;&gt;,&lt;/span&gt;&lt;/div&gt;&lt;div&gt;&lt;span style=&quot;color: #cccccc;&quot;&gt;&amp;nbsp; &amp;nbsp; &lt;/span&gt;&lt;span style=&quot;color: #ce9178;&quot;&gt;&#39;sm&#39;&lt;/span&gt;&lt;span style=&quot;color: #cccccc;&quot;&gt;: &lt;/span&gt;&lt;span style=&quot;color: #b5cea8;&quot;&gt;600px&lt;/span&gt;&lt;span style=&quot;color: #cccccc;&quot;&gt;,&lt;/span&gt;&lt;/div&gt;&lt;div&gt;&lt;span style=&quot;color: #cccccc;&quot;&gt;&amp;nbsp; &amp;nbsp; &lt;/span&gt;&lt;span style=&quot;color: #ce9178;&quot;&gt;&#39;md&#39;&lt;/span&gt;&lt;span style=&quot;color: #cccccc;&quot;&gt;: &lt;/span&gt;&lt;span style=&quot;color: #b5cea8;&quot;&gt;960px&lt;/span&gt;&lt;span style=&quot;color: #cccccc;&quot;&gt;,&lt;/span&gt;&lt;/div&gt;&lt;div&gt;&lt;span style=&quot;color: #cccccc;&quot;&gt;&amp;nbsp; &amp;nbsp; &lt;/span&gt;&lt;span style=&quot;color: #ce9178;&quot;&gt;&#39;lg&#39;&lt;/span&gt;&lt;span style=&quot;color: #cccccc;&quot;&gt;: &lt;/span&gt;&lt;span style=&quot;color: #b5cea8;&quot;&gt;1280px&lt;/span&gt;&lt;span style=&quot;color: #cccccc;&quot;&gt;,&lt;/span&gt;&lt;/div&gt;&lt;div&gt;&lt;span style=&quot;color: #cccccc;&quot;&gt;&amp;nbsp; &amp;nbsp; &lt;/span&gt;&lt;span style=&quot;color: #ce9178;&quot;&gt;&#39;xl&#39;&lt;/span&gt;&lt;span style=&quot;color: #cccccc;&quot;&gt;: &lt;/span&gt;&lt;span style=&quot;color: #b5cea8;&quot;&gt;1920px&lt;/span&gt;&lt;/div&gt;&lt;div&gt;&lt;span style=&quot;color: #cccccc;&quot;&gt;);&lt;/span&gt;&lt;/div&gt;&lt;br&gt;&lt;div&gt;&lt;span style=&quot;color: #9cdcfe;&quot;&gt;$flex-alignments&lt;/span&gt;&lt;span style=&quot;color: #cccccc;&quot;&gt;: (&lt;/span&gt;&lt;/div&gt;&lt;div&gt;&lt;span style=&quot;color: #cccccc;&quot;&gt;&amp;nbsp; &amp;nbsp; &lt;/span&gt;&lt;span style=&quot;color: #4ec9b0;&quot;&gt;center&lt;/span&gt;&lt;span style=&quot;color: #cccccc;&quot;&gt;: &lt;/span&gt;&lt;span style=&quot;color: #ce9178;&quot;&gt;center&lt;/span&gt;&lt;span style=&quot;color: #cccccc;&quot;&gt;,&lt;/span&gt;&lt;/div&gt;&lt;div&gt;&lt;span style=&quot;color: #cccccc;&quot;&gt;&amp;nbsp; &amp;nbsp; &lt;/span&gt;&lt;span style=&quot;color: #4ec9b0;&quot;&gt;start&lt;/span&gt;&lt;span style=&quot;color: #cccccc;&quot;&gt;: &lt;/span&gt;&lt;span style=&quot;color: #ce9178;&quot;&gt;flex-start&lt;/span&gt;&lt;span style=&quot;color: #cccccc;&quot;&gt;,&lt;/span&gt;&lt;/div&gt;&lt;div&gt;&lt;span style=&quot;color: #cccccc;&quot;&gt;&amp;nbsp; &amp;nbsp; &lt;/span&gt;&lt;span style=&quot;color: #4ec9b0;&quot;&gt;end&lt;/span&gt;&lt;span style=&quot;color: #cccccc;&quot;&gt;: &lt;/span&gt;&lt;span style=&quot;color: #ce9178;&quot;&gt;flex-end&lt;/span&gt;&lt;span style=&quot;color: #cccccc;&quot;&gt;,&lt;/span&gt;&lt;/div&gt;&lt;div&gt;&lt;span style=&quot;color: #cccccc;&quot;&gt;&amp;nbsp; &amp;nbsp; &lt;/span&gt;&lt;span style=&quot;color: #4ec9b0;&quot;&gt;between&lt;/span&gt;&lt;span style=&quot;color: #cccccc;&quot;&gt;: &lt;/span&gt;&lt;span style=&quot;color: #ce9178;&quot;&gt;space-between&lt;/span&gt;&lt;span style=&quot;color: #cccccc;&quot;&gt;,&lt;/span&gt;&lt;/div&gt;&lt;div&gt;&lt;span style=&quot;color: #cccccc;&quot;&gt;&amp;nbsp; &amp;nbsp; &lt;/span&gt;&lt;span style=&quot;color: #4ec9b0;&quot;&gt;around&lt;/span&gt;&lt;span style=&quot;color: #cccccc;&quot;&gt;: &lt;/span&gt;&lt;span style=&quot;color: #ce9178;&quot;&gt;space-around&lt;/span&gt;&lt;span style=&quot;color: #cccccc;&quot;&gt;,&lt;/span&gt;&lt;/div&gt;&lt;div&gt;&lt;span style=&quot;color: #cccccc;&quot;&gt;&amp;nbsp; &amp;nbsp; &lt;/span&gt;&lt;span style=&quot;color: #4ec9b0;&quot;&gt;evenly&lt;/span&gt;&lt;span style=&quot;color: #cccccc;&quot;&gt;: &lt;/span&gt;&lt;span style=&quot;color: #ce9178;&quot;&gt;space-evenly&lt;/span&gt;&lt;/div&gt;&lt;div&gt;&lt;span style=&quot;color: #cccccc;&quot;&gt;);&lt;/span&gt;&lt;/div&gt;&lt;br&gt;&lt;div&gt;&lt;span style=&quot;color: #c586c0;&quot;&gt;@mixin&lt;/span&gt;&lt;span style=&quot;color: #cccccc;&quot;&gt; &lt;/span&gt;&lt;span style=&quot;color: #dcdcaa;&quot;&gt;flexbox&lt;/span&gt;&lt;span style=&quot;color: #cccccc;&quot;&gt;() {&lt;/span&gt;&lt;/div&gt;&lt;div&gt;&lt;span style=&quot;color: #cccccc;&quot;&gt;&amp;nbsp; &amp;nbsp; &lt;/span&gt;&lt;span style=&quot;color: #9cdcfe;&quot;&gt;display&lt;/span&gt;&lt;span style=&quot;color: #cccccc;&quot;&gt;: -webkit-box;&lt;/span&gt;&lt;/div&gt;&lt;div&gt;&lt;span style=&quot;color: #cccccc;&quot;&gt;&amp;nbsp; &amp;nbsp; &lt;/span&gt;&lt;span style=&quot;color: #9cdcfe;&quot;&gt;display&lt;/span&gt;&lt;span style=&quot;color: #cccccc;&quot;&gt;: -moz-box;&lt;/span&gt;&lt;/div&gt;&lt;div&gt;&lt;span style=&quot;color: #cccccc;&quot;&gt;&amp;nbsp; &amp;nbsp; &lt;/span&gt;&lt;span style=&quot;color: #9cdcfe;&quot;&gt;display&lt;/span&gt;&lt;span style=&quot;color: #cccccc;&quot;&gt;: -ms-flexbox;&lt;/span&gt;&lt;/div&gt;&lt;div&gt;&lt;span style=&quot;color: #cccccc;&quot;&gt;&amp;nbsp; &amp;nbsp; &lt;/span&gt;&lt;span style=&quot;color: #9cdcfe;&quot;&gt;display&lt;/span&gt;&lt;span style=&quot;color: #cccccc;&quot;&gt;: -webkit-flex;&lt;/span&gt;&lt;/div&gt;&lt;div&gt;&lt;span style=&quot;color: #cccccc;&quot;&gt;&amp;nbsp; &amp;nbsp; &lt;/span&gt;&lt;span style=&quot;color: #9cdcfe;&quot;&gt;display&lt;/span&gt;&lt;span style=&quot;color: #cccccc;&quot;&gt;: &lt;/span&gt;&lt;span style=&quot;color: #ce9178;&quot;&gt;flex&lt;/span&gt;&lt;span style=&quot;color: #cccccc;&quot;&gt;;&lt;/span&gt;&lt;/div&gt;&lt;div&gt;&lt;span style=&quot;color: #cccccc;&quot;&gt;}&lt;/span&gt;&lt;/div&gt;&lt;br&gt;&lt;div&gt;&lt;span style=&quot;color: #c586c0;&quot;&gt;@mixin&lt;/span&gt;&lt;span style=&quot;color: #cccccc;&quot;&gt; &lt;/span&gt;&lt;span style=&quot;color: #dcdcaa;&quot;&gt;flex&lt;/span&gt;&lt;span style=&quot;color: #cccccc;&quot;&gt;(&lt;/span&gt;&lt;span style=&quot;color: #9cdcfe;&quot;&gt;$values&lt;/span&gt;&lt;span style=&quot;color: #cccccc;&quot;&gt;) {&lt;/span&gt;&lt;/div&gt;&lt;div&gt;&lt;span style=&quot;color: #cccccc;&quot;&gt;&amp;nbsp; &amp;nbsp; &lt;/span&gt;&lt;span style=&quot;color: #9cdcfe;&quot;&gt;-webkit-box-flex&lt;/span&gt;&lt;span style=&quot;color: #cccccc;&quot;&gt;: &lt;/span&gt;&lt;span style=&quot;color: #9cdcfe;&quot;&gt;$values&lt;/span&gt;&lt;span style=&quot;color: #cccccc;&quot;&gt;;&lt;/span&gt;&lt;/div&gt;&lt;div&gt;&lt;span style=&quot;color: #cccccc;&quot;&gt;&amp;nbsp; &amp;nbsp; &lt;/span&gt;&lt;span style=&quot;color: #9cdcfe;&quot;&gt;-moz-box-flex&lt;/span&gt;&lt;span style=&quot;color: #cccccc;&quot;&gt;: &lt;/span&gt;&lt;span style=&quot;color: #9cdcfe;&quot;&gt;$values&lt;/span&gt;&lt;span style=&quot;color: #cccccc;&quot;&gt;;&lt;/span&gt;&lt;/div&gt;&lt;div&gt;&lt;span style=&quot;color: #cccccc;&quot;&gt;&amp;nbsp; &amp;nbsp; &lt;/span&gt;&lt;span style=&quot;color: #9cdcfe;&quot;&gt;-webkit-flex&lt;/span&gt;&lt;span style=&quot;color: #cccccc;&quot;&gt;: &lt;/span&gt;&lt;span style=&quot;color: #9cdcfe;&quot;&gt;$values&lt;/span&gt;&lt;span style=&quot;color: #cccccc;&quot;&gt;;&lt;/span&gt;&lt;/div&gt;&lt;div&gt;&lt;span style=&quot;color: #cccccc;&quot;&gt;&amp;nbsp; &amp;nbsp; &lt;/span&gt;&lt;span style=&quot;color: #9cdcfe;&quot;&gt;-ms-flex&lt;/span&gt;&lt;span style=&quot;color: #cccccc;&quot;&gt;: &lt;/span&gt;&lt;span style=&quot;color: #9cdcfe;&quot;&gt;$values&lt;/span&gt;&lt;span style=&quot;color: #cccccc;&quot;&gt;;&lt;/span&gt;&lt;/div&gt;&lt;div&gt;&lt;span style=&quot;color: #cccccc;&quot;&gt;&amp;nbsp; &amp;nbsp; &lt;/span&gt;&lt;span style=&quot;color: #9cdcfe;&quot;&gt;flex&lt;/span&gt;&lt;span style=&quot;color: #cccccc;&quot;&gt;: &lt;/span&gt;&lt;span style=&quot;color: #9cdcfe;&quot;&gt;$values&lt;/span&gt;&lt;span style=&quot;color: #cccccc;&quot;&gt;;&lt;/span&gt;&lt;/div&gt;&lt;div&gt;&lt;span style=&quot;color: #cccccc;&quot;&gt;}&lt;/span&gt;&lt;/div&gt;&lt;br&gt;&lt;div&gt;&lt;span style=&quot;color: #c586c0;&quot;&gt;@mixin&lt;/span&gt;&lt;span style=&quot;color: #cccccc;&quot;&gt; &lt;/span&gt;&lt;span style=&quot;color: #dcdcaa;&quot;&gt;order&lt;/span&gt;&lt;span style=&quot;color: #cccccc;&quot;&gt;(&lt;/span&gt;&lt;span style=&quot;color: #9cdcfe;&quot;&gt;$val&lt;/span&gt;&lt;span style=&quot;color: #cccccc;&quot;&gt;) {&lt;/span&gt;&lt;/div&gt;&lt;div&gt;&lt;span style=&quot;color: #cccccc;&quot;&gt;&amp;nbsp; &amp;nbsp; &lt;/span&gt;&lt;span style=&quot;color: #9cdcfe;&quot;&gt;-webkit-box-ordinal-group&lt;/span&gt;&lt;span style=&quot;color: #cccccc;&quot;&gt;: &lt;/span&gt;&lt;span style=&quot;color: #9cdcfe;&quot;&gt;$val&lt;/span&gt;&lt;span style=&quot;color: #cccccc;&quot;&gt;;&lt;/span&gt;&lt;/div&gt;&lt;div&gt;&lt;span style=&quot;color: #cccccc;&quot;&gt;&amp;nbsp; &amp;nbsp; &lt;/span&gt;&lt;span style=&quot;color: #9cdcfe;&quot;&gt;-moz-box-ordinal-group&lt;/span&gt;&lt;span style=&quot;color: #cccccc;&quot;&gt;: &lt;/span&gt;&lt;span style=&quot;color: #9cdcfe;&quot;&gt;$val&lt;/span&gt;&lt;span style=&quot;color: #cccccc;&quot;&gt;;&lt;/span&gt;&lt;/div&gt;&lt;div&gt;&lt;span style=&quot;color: #cccccc;&quot;&gt;&amp;nbsp; &amp;nbsp; &lt;/span&gt;&lt;span style=&quot;color: #9cdcfe;&quot;&gt;-ms-flex-order&lt;/span&gt;&lt;span style=&quot;color: #cccccc;&quot;&gt;: &lt;/span&gt;&lt;span style=&quot;color: #9cdcfe;&quot;&gt;$val&lt;/span&gt;&lt;span style=&quot;color: #cccccc;&quot;&gt;;&lt;/span&gt;&lt;/div&gt;&lt;div&gt;&lt;span style=&quot;color: #cccccc;&quot;&gt;&amp;nbsp; &amp;nbsp; &lt;/span&gt;&lt;span style=&quot;color: #9cdcfe;&quot;&gt;-webkit-order&lt;/span&gt;&lt;span style=&quot;color: #cccccc;&quot;&gt;: &lt;/span&gt;&lt;span style=&quot;color: #9cdcfe;&quot;&gt;$val&lt;/span&gt;&lt;span style=&quot;color: #cccccc;&quot;&gt;;&lt;/span&gt;&lt;/div&gt;&lt;div&gt;&lt;span style=&quot;color: #cccccc;&quot;&gt;&amp;nbsp; &amp;nbsp; &lt;/span&gt;&lt;span style=&quot;color: #9cdcfe;&quot;&gt;order&lt;/span&gt;&lt;span style=&quot;color: #cccccc;&quot;&gt;: &lt;/span&gt;&lt;span style=&quot;color: #9cdcfe;&quot;&gt;$val&lt;/span&gt;&lt;span style=&quot;color: #cccccc;&quot;&gt;;&lt;/span&gt;&lt;/div&gt;&lt;div&gt;&lt;span style=&quot;color: #cccccc;&quot;&gt;}&lt;/span&gt;&lt;/div&gt;&lt;/div&gt;" style="text;whiteSpace=wrap;html=1;" parent="1" vertex="1">
          <mxGeometry x="1110" y="-600" width="320" height="780" as="geometry" />
        </mxCell>
        <mxCell id="73Ai4wEuDDb9qYBm-aEW-11" value="" style="shape=image;verticalLabelPosition=bottom;labelBackgroundColor=default;verticalAlign=top;aspect=fixed;imageAspect=0;image=data:image/png,iVBORw0KGgoAAAANSUhEUgAAAywAAAIoCAIAAAAECvhoAAAgAElEQVR4Ae2dTY4sR3J1exc9zCF7Gb2CHmodGmoFmn9zAr0FLkETDRooaNgEBK6F7wNprcv7zNw9POMnIyLzNIiEuf25+Ymo8qt6pff+9OB/EIAABCAAAQhAAAIvJ/Cnl+/IhhCAAAQgAAEIQAACD0QYLwEEIAABCEAAAhA4gQAi7ATobAkBCEAAAhCAAAQQYbwDEIAABCAAAQhA4AQCiLAToLMlBCAAAQhAAAIQQITxDkAAAhCAAAQgAIETCOwvwv77P/8r/jvhNIdt+e3nP8V/h+1wVOMff/n1x19+neweyfqcrJpJ2wWgXq3//s//mtn0BTn/8//+43/+33/0NoroIKFXeJBf84zH3r77dY78eDyOPux2XHSAAAQ+lsBHiLCNovCm8ive6adEmL4M1lWpvGdsIbnxIfZG2ujvXfDJfylRcrQuSWffSHh7+dXm2X4iOkAAAm9DYH8RdkE0G+/vFdKh/jBpXtbUzOqZh7yudl3V4lQrSKrnxoeoPvsavQs+qa603HeGFd16Y69oVUs+6rD1+HggAAEIzBNAhC2zWiEdQsT4nwPOy5qoUm1aLo/7fcb8vl63rso7NO0VJNXnRiKsqUKaTp3uxQYi7MXA2Q4CEIBAk8CeIiyuSX36fnLGb/NoGTmxfDwe8tdf+vFQig7KU5WWPtuivUI6zIgw5bjxeDyS6krLmNZLJNd0kBRVQviVFnspOu+vfbx2YK8gqW56yvKEIb8ebvP1UFTl8jTfSaWtMJp6KzlDBulTu0geKZQK9YeJnhA5qq3d5AmjZrpfnb1KJYrWwTSbF9bO42hqu7jveJ66V/J8/d//kp8lBCAAgRcQ2FOEaVzdi9WjkAzXXpHvoaYnJcTSr95mgoZ51lghHSRTJHHkid0HyyjxQimzxdqqq3wjt5utRKZmps7NBJX3jBUk9XDd8P7yy+lP3229aZGpUDXUaoUh0SBFIoWkbq4zpCEimpZq4rW13GuVWWsV8iHd6XbKWRwsan221M2XsuuQT+3ryW57/7H9fxrsa5xGFAIQgMARBC4kwvx4uhfTxamccYJHex3UatFYIR2kUVxLyU6CJi2VpiaREHO6U5PLKaOG0i6DbpOZdS9t2jNWkFSr9EwHfmXKULK/DIpWw/OftaVCpFrCI39t6OrB7chMnsEyhaq+0dY1UyEZKSctm81rTjNNW/Si3sftKJRHhhpWj0I9AxHWI4MfAhB4AYH3FGEJnG7Z5J9crpAOEihNRVVVjvJ7eqvXJ46gchk6mnvcToXK7/nna1MrX64gqfLeQ+z5XW+piTtVWA3Pf9aW5KpGr5VLB7cjP3kGyxTqSZyB3ydM3dLSM2U3hea4sBl1p9vaKIwaqp5UwhICEIDApQggwkaPY7VocMkS+sk99xVhcQr/HOHrxNZRlVRKXXt+11teovyB4fnP2lV7yaNWoRXSZ0SrjEiewTKFBmKrZio5QvpMM2vZNE4RYRpVRnM2nBCAAAQuSAARtvxQVogGl1wDEdZUM/qhl08mp3dWgpwyaqgqv6YnCsd91PxZYwVJbSHNJE8YPf9FRFiIG31K6/gpQj2Ex+2mR1JDhlot1j6VmbqlpVrJ6CX0/FHYjLrTbe01qE05LCEAAQhcmcBHiLDefTz5YFZIhyRiYjkWUhpGafL0/oxSCdpORg01JVfNj8Lqrx5tMW+sIKnmPbHV8/ceuvIHhjZdYejnXvqxkDzRraoK97hd82vUJ6zR6qk9Jz29VhpA55Wn19kTmm3d6bYXNuVsSphZxu+EzWSSAwEIQGB3AlcUYbodddrkGS9V5UYq8dCivUI6JMkSS6mrFE0DKM397kzlg+V43xRN2/mOEUobef6kvYKkOveeYM8fhSnqS9nV0KYrDEmuakS3pCpiKQWToklq1KhPmKKp8yAz7aKlppLHm7idtvZQrfW2zagnPNU57Tuz5BfzZyiRAwEIHERgTxEWl1n6jLnrPSePfmLhhfW0HvW/jULltSR5vEMKjZcrpEPSK1XuyONGjFHVj/8kTDm1sIbqT79SVSx1fI/KVlTdFGqO6vnJXkFSHfyFkXPm6ftz9zdHDavh/Z+1JSCkHmSoVXjkl1EVSfV4reyZzmqlKt83RbVMnbVMhk6d/Fr6pnLK8GhqlYZUiYxUm8qVNjD4YdgADiEIQOBQAnuKsNWD6hZc3eHQwi3SoTlYkj6R03Q2y+/r3J3kBVGsEAHzp2gqkqZzvucumYeeepcJB00QYQM4hCAAgUMJIMKW8e4uHZp6q+lcHu5WGbuTvObpj1MkTb3VdL6SzOkDbDksCmwLPWohAIGNBBBhywB3lw5Vb4Xn2T/dWx79Yhm7k7zY+f41ThIlO2qy1Fl/aLjjFtdEesRU/DbYEVTpCQEIPEUAETaFK9TDt593wyXVJWNqjtsm7Q7w4iRCLelzx2nVU8aOzWkFAQhAAAKvJLCbqnjl0OwFAQhAAAIQgAAE7k4AEXb3J8j8EIAABCAAAQjckgAi7JaPjaEhAAEIQAACELg7AUTY3Z8g80MAAhCAAAQgcEsCiLBbPjaGhgAEIAABCEDg7gQQYXd/gswPAQhAAAIQgMAtCSDCbvnYGBoCEIAABCAAgbsT2F+E6Z/quzsan/9Sf82V/mqxMHzOF9ja/QV7zW/x+ql2eSX0xeL/qOX8qY/IjL9+bGPn3l8eq7/brJewet9mZ3fuvqOP2mvuA3j+drvZ2Z29kbZvvdghxkhpmi35z10eN1UTwrmHZfdrEvgIEbbx36aM6/aCz+9zRNjiSV8vwuJ92PJubHwtD3oht18evQ49//aDLHZeTNgyQ695z79lr6hd7LyYsH2GQYfm7uF8sTRsTuKTHzfV4tY+BvYnE9hfhF2Q5sbbbt1FK1kgY56MSmQ0ayPaDK1wai8ZK5ocVLLvSXccct27EQNsfC13PIW32n559C7a7Z19TrcXOy8meLdn7U877yKfQ2kv7u4JJ05y4tZOAPv6BBBhy89o3UW7RTdM1k6mLZ/w94zarXomW+2edp1J0tHWvRvRBBGWYK5eLl54iwmrt45/vrNZftymi50XE5oD7+U8d3c/xYmTnLi1E8C+PoE9RVhcKvr0w8sZv/uiZeTE8vF4yF9/RcZDKTooT1Va+myL9rqLdqAbaih50rI3YS8t/DU69oyjj8fD29Z/a1zlnuaT9/yR04u63211dmdzKmVqI/d4ufsn7XXvRjTXe5v2kl+va/OFV1Tl8jS/ypR2qDG4e5qh6qyexYEXS3oJ4a/RGU9MVTM1bTNUndWjDj1jsaSXEP4anfH0hgm/d07dUij1UbKneU7PX/ftVTU7uLP+LHPR4+W+76TNPx4/CeoT0vYUYeKlW6R6FJLh2ivyPdT0pIRY+kXVTNAwzxrrLtq43Xt7edTtyK+eZp9mmjvdrp1TNC1rvmYYZLoM8rSe3dzFmzQTNIkbvoX8yTlYppA6jI0V74ZeVzd8F/nl9PfZbX3tRKZC1VCro43m7eU3Vtg+hnvc9pymXdvW3aOw2dadbteSGtU8dcdITp/Kj5+cqWrQ2Ut8pEFnlTTbutNtb15t9RwYqVtaqrDpD6eADPjU8uTxJvMHSU2ahSnHl27rpIsGImwR0eckXEiEOXTdIumaUc44waO9Dmq1aKy4aPVzo0FzSQ0ZSp4UBDVt0hMbpX1rbe8Uk5lKk9E8YI0qTcbqnFToS7cFJDHRAD1j3bsR3dJbqi2qXx4ZSvbXW9FqeP5x9vhCGkR1fcp4ashB5+hTEyY9Km/OU5t42iCqY8rwwkV70Dlqa8KkR+WLMyhhprPa1vMOygehpNU0TDJqh5TQ65MKfen24Fx1I/cgwpzGh9vvKcLSQ9WdlPyTy3UXbdzx/pm2mwxVraA+NTTvmcncKMIm56yTqFDGlhzXVcn2Ze+wmqFprHs3olXvtez5XW/5MMofGJ5/nF2vWN+r3l6KRmiQoMymsVhYE+Y9NVMzfNp5dXA3Kp/qifymv+ns5Xuy2z6P21ty/OEm25c9GedjYENgQAARNoDz2HLFbtQNSR80p6xbhKd+pvJa2JMgGzNj3zqPt3U7zanllhyvdarhr5/adN5Y955IM6WNev43FmGDmyzuUX0mVrFcvGtrghomI/WvhZ6QLmMPDU40nnk8z7hWA9SxU1stVTLZOeU3j1l3HzTvJauzRpUx6JbGGzRXZi/H/f6gNUYy1BADAk8RQIQt41p3xfrd39zDr/+UsFgb+TWtelJnia2aWT1KTk3mM3tzesNmN0/ojTGZo/4yZqZKzXvLde9GdOuJrZ7/4iLML60mrkGC32fN2rFz0DkKa0L11C3GUy12GCSMO9dJkmfQ+bjzphm0rMNUT28qKS11c6PXZ9DNy8fNldnbRX4Z8/uqOQYEFgl8hAjr3V6LdCJh3UWbrvy6l34qI0M5i7WRWdOqRz1laDsZz3Zr7tJ09jprmEmBNZM2HiA6rNjXS6q97t2IPj2x1fP3XmPlD4w6+QpP3Eb+UwFv0vMrJ11m8sdlGcvFJl4le9BZbVPnxZLFqVJDDSNjsIVqZahqxhh0jvKaUD11Iw0jw3OiQw3VztXTm2qsk3p9Bt184Mm0wS5x2HTkQX7dveeJ3wnrRfF/FIErijDdJXoSyTNeqsqNVOKhRXvdRTvQBElS1MzqaQ7ZTGs6Ve5Rt9NIdakOvVDq5vm9EuWk2qQOIy3lqFbGICEa1raDErUdG+vejejZeyd7/maVJ8uuxvgUk9G4ftKdFLUzN1Mvx/1uT041vsgH44338qjbg4Zp4FpVa3s5qVVaLlY1E5pOdfao2ylh8elH7WJaaqtlMpqTKCdF5zdVh/HLEw1r27Svd5u0+cX8SVCfkLanCItv/ekzINZbQR793/deWNF71P82CpXXkuTxDik0Xq67aAcXfA0lT1qm8SKaPj0nhSQ+alv39KrUuSao86LMUoI3UecUdb/bzVp3yvYqb578HurV1hL3rHs3ooN/CXjPnl85/ib714IKq6HaLcb4fl3s3Ly6qrN61nXW/aqxa+cU0nXby9QkypSnGrWJRvLkZponVLtXEv706eUppFPUhj2PSnpt6xnrpt6kbuSd1c2beELPv5jjhbK9yrdOfg/1amtJ8vDDsATkY5d7irDVEHVnrO5waOGWi/bQwWh+OgHejXgEfq2e/lBeMMCnnfcFSD9tC0TYpz3x3nkRYT0yf/i5aP9ggfU9Ad4N/VTgezDvvIoffrzzCTnbwQRQYAcDvlN7RNjy0+KiXWb0qRm8G5/65Dk3BNYQ4LfB1lB76xpE2NTjjbv228+XwDU1MUkHE+CVOBgw7SEAAQi8PwFUxfs/Y04IAQhAAAIQgMAFCSDCLvhQGAkCEIAABCAAgfcngAh7/2fMCSEAAQhAAAIQuCABRNgFHwojQQACEIAABCDw/gQQYe//jDkhBCAAAQhAAAIXJIAIu+BDYSQIQAACEIAABN6fACLs/Z8xJ4QABCAAAQhA4IIE9hdh+oftLnja1SPxl0KtRueF6/59Ru9whP36qXZ5nfSF5v985BF85nvu8lfJ9/5FIP0jfb2E+Tkj0xvu1fPZGTbm98b2o23c4m1YjTk0X11hHNe+OHrcVE0ILz7dB273ESJs479NGVfmB74c9cihV6p/0vN6uaN/onsw4SlTPR6PLe/Vxld6QGNLaPs38V6Hnn/LtKo9tLl2mTcm5+ml9fzzAwwyD20+2LcX2mueZp9w9pRub6SN/uYk3vO4qRa39jGw9yKwvwjba7Id+2y8sdZdlrraZcyfKErm81+W2RtMZ5TxspEWN+rNvFh4dMK69yqm2vhKH3S07d/Eexfe9s6DIx/afLBvLzQ5D6x2/HdLJ5n3HtmO/hMnOXHrHQHerhUibPmRrbsst9z9W2qXz7MhozdY9VfPhm03lV5nknSMde9VNEGEJZhblle7eybnQYQhwra89rV28sWrhXi2ENhThMXFoE8fS874/RUtIyeWj8dD/vprLh5K0UF5qtLSZ1u0112Wg7u/hpInLeuEkaBPT/jxl199GX8e5x5VpV3SMv1BXqrSMjqPa9UqVWkqlSshnaLn993VJLX12pSTQipU27HHy1PmzHLdexWd9c6njeTXq978YlFU5fI0v0KVdqgxuAOaoeqsnpmBe1Xh16e3qgIoeVSVmqdlkhGpSkvfOuzaRznNUHVWjzoMjF5V+PXpHRKZOHJKUKEn173c4yVue+ex7VXeWQ9FCamPkpXgY6fyVDuIeje31cGdacdKtXq8XD3nDf7p8XlWT2XuKcK0sW6C6lFIhmuvyPdQ05MSYumXTTNBwzxrrLss032fNvWo25FWPV7uAiUyq0f5qdVgmUJSTmrV9AwGrg17HSKzdwrv43Zza2/STPDjyK5t66gpx5duq+eiseK90qvuhm8kv5z+teC2vu4iU6FqqNXRRvNe8ZsjbB/DPW57zqLdLPRhIqF61Dl1GCxTSFeyWjU9Hg3bh5FHc8rwQt/abc9ZtJuFPkzdOpXML1Nmk0zNWTxCJKTCtFSTpj+c9dS1cy1PHm9SyzVGMlKTZmHK8aXbqfNgiQgbwNkSupAI82PoJkhXhXLGCR7tdVCrRWPFZVmv8LqL5IIM5Tx1qafkwTKFYjs5ZQzGqDmpiWp7BJodqlMeGersHreVkIzVOanQl27HdtWTxqjLde9V9ElvuJpXvzwylOxfGopWw/OPs8cXwyCqa0zGs0MOmqtVyhksUyg6yCmj17kpNZScuiX/YlSIZDQ7DJx1/pqccgbLFErz1+iMp85TPfN9ambzASlNhjZ1j9tKSMbqnFToS7dju+pJY9QlIqwy2cXzniIsodG9kvyTy3WXZdzK/pm2Wwyl/N6yXv+u6pLty2iochnaaMaTmqh2owhTn/EMNapCGVtyHFeyfdk7rGZoGuveq2jVe6V7ftdbPozyB4bnH2ePZcHgzojQIGFx5pnamuMDJ9uXsbvKZWiqGY+S1S15fFkbKhqhQYIye8ZMbc1xIMn2ZWyqchkaZsaj5IEx36dmNkWY9qr57nFbJcnYkuMwk+3L8RHSPCyPJoAIGxHeck1uvPvTHe9TRuf0WROqMmiOJKcMtZrxRHLNrLs/m+n50d8/PRp277M5W0ru5bjfn4hP4nZqO7Nc945JM6Utev43FmGDGyXuM30mVlo2rz1VuaES3zSVp2WUyClDrWY8Sla35PFlbTgTjSp9eonbzeaqcqNZlcrTMkrklKFWMx4lD4z5PjXTH33dIvLrZ2Q2u6UmW3K81lVXnccz0wAsX0wAEbYMfN016fd3c4/B5T2oraGBx3XDoioa9NH8NSdCTf9G56Dz4jxK6J3aEwY5OoKMmalS895y3XsV3Xpiq+e/uAhbvBIGCX7B9FCP/bX5Ux6/7Xo3tBrK0EgzHiX3+k8mxF51Ry8f27X2Kc+LWfXOMjNz1NbM8SNo5muMcXSwozqMc9Rfxjg/tWV5CoGPEGG9G2iS+LrLMl3bdS8pJBnKGdTWUPWEqtDnuK3KZUzmK60pYmq3yG/6m85BvrYeFCqnOZ5HxwnxdNIzmtw37ZKW696raNITWz1/70tA+QMjjb1uGbdCuoPVquf3hF6O/DJUNWmkG6t5y9acSNOn9uplxng1Wj3NAby/7KbRbBiZQiSj2WHgrM1nPKKU9q21fvYarR7Pr2NHftq0WdLs3MzsOUW4bqfBersoYabJ4gCR4D0n9/WSasfvhFU/no0ErijCdB/obMkzXqrKjVTioUV73WU5vqc96nYMUz0aMoVimSSCVEXP3+z2VGd1aA6cWnlyM9R0quqpaD2yaKhhNQZbRMPadlBS+zc9696raNV7n3v+ZpUny65Gc/hnnb3rcHyjaJfeLeJ+t1U4Y9TC5IllvVzHfm3t3dzW2Xud1UFGKpffjV6O+9322kW7FiZPLHsn6vm1r3dzewWrQYlCsW9v5pTWHFJOGWls+cNI0Qqkt6n3SU1SKDq4c6Znyq9LfjG/MtnFs6cIi2/f6TOmrN/Z5dH/je6F9Wwe9b+NQuW1JHm8QwqNl+suy8ElXUPJE8v0qSHd31MYqaFqla8mvZAyPSFs1UqauKe5dU1Q7WAjbV3LFVJ5c1+leYemUwmKhtHzp33Hu6eesVz3XkWtf/l4855fOf5V4F9HKqyGarcY43tusXPz1qnO6hl01khuKD85m52bzujg5emi9dDgdkxpaqsJe0Zzquqsnl5DDekj+aHcr+TUbbCdl3tbtVKtjGbzGlXnlL/YWYVuqEndSKEwvKomezQVatnMcadslaStkz8dOcprztjDD8PGfNZF9xRh6yaYV1Gr+28s3HJZbtx6dfkKTbB6LwrXEbjje7XupOOqdO+Oky8VXXeTbTkCrLbQo3YjAUTYRoDNckRYE8t3zjteloiw7x7hJRd3fK92B/l6HbPjEV48/Iu32xGUfgyzb0+6vZIACuwg2oiwZbC3uyxRYMsP9QIZt3uvLsDsQiPcWhK9mCOsXgx83+34bbB9eaZuiLAEpL2M+/Lbz5fA1R7xd2/IL/91q0EyobMI3OV1OovPxfcNSXHfPxl8JV5YvZI2e92RwNVVxR2ZMjMEIAABCEAAAhBYJIAIW0REAgQgAAEIQAACENifACJsf6Z0hAAEIAABCEAAAosEEGGLiEiAAAQgAAEIQAAC+xNAhO3PlI4QgAAEIAABCEBgkQAibBERCRCAAAQgAAEIQGB/AvuLMP27KPsPe15H/k6Bjez1d2cM/g4z5Wzc69nys/Ydz/n6qXZ5yfXl7/8m0vikR0d3+Uuqen8hhf4Khl7Cvqfz7Xo7Kmffrb3b4ta9BG8yY+ssYcyU3Dpn5rzKOeukzWdx+lRNGsdN1YTQnGHR+REiTP8c3iKOZkJcTs3QpzkHEmoSxaDD62VHzHzKvgMOJ071eDy2vO0bv9AmX6Fn07Z/u+x16PmfnXBF/mDrCO0lg+psva17/tphhefQ5hecZ3DeCB33fBdpNGc7ZarmJD7/cVMtbu1jjO39Rdh4v1OiG++GddeSrnYZ82dfvKHnW+2bOR5s5qTjDkdMq6ku9XfYvpLDU1TXve2xxcYvtKfmnE/e/u2yd+Ft7zx/ipR57tZpmFgeOtKhzZvHGTuPnufo/uPTjaPXme3ESXbcGhE2ft9+i667lrbcsltql8+zIWM8WKicsdYZd9gwWqO07lU9jbKXuK4zSTruurc9miDCEszjljveAc8OeYokPfG8TT5Hz3N0/+ahJp3Xme3ESXbcek8RFt+C9elPVM74TREtIyeWj8dD/voLJR5K0UF5qtLSZ1u0111Lg1u2hpInLeuEkaBPT6gaKHlUlXZJy8fj4Z5UpWXd2qs8GnYzqm7NqCapacr3kDZVtOfxqkRJm8rodat+P2mNpk21TENWv9oqs+lRYT1RKmwu173t0Upfiamz/PoCbH4JK6pyeZrfN5R2qDH4btsMVWf1jAeOfH02k5s9VdKM6l/RrmnK99D8vpGpJl5YndXj+T27VxV+fXp5FYvJo6rUPC3FLZqnKi1967GtkrqRCpuhxcKUoCbJ0FLbLRq1s0pSSP4wtJeneU7P7+VqokKvcruXIL/ajj3NnqlksHzqX9vcU4RpJn3PrR6FZLj2inwPNT0pIZb+bb2ZoGGeNdZdS3EX9vbyqNuRXz3exy/XyKwe5adWg2UKSXyoVdOjqMplKOTGimgq8WXYveN7pmZ41jnTvPZMHm8Sk6QEjedGMyc5B8sU8s4De8Xbri9AN3wL+eX0r1C39d0gMhWqhlodbaSbW1eyf5tOORGKwdyeGdVbaYtaOG7bjCanL8OuWzf3TU7VuuE5dSOPTtreRCV14Orx5Mlo3WvGo43GRp3BPaqtOyqkN9A91ekdwvaNPJr61GVKTkvlN/3h7G3tJW5Hz+TxJs0ETeJGatIsTDm+dNvbju27ijA/lb7npm/KyhkneLTXQa0WjRXX0livxI66mGVokqeuz5Q8WKaQxogBanTG4zM3bTnTdsk/iKYxfOl27VCjvecymak0GTqFe9xWQjJW56RCX7pdaaQBest1b3t0S1932qL65ZGhZP+CVbQann+cPf4WPIjqwpCxbsjeFj1/7NKMJqcv3Z7vkE5UmyhBEGQoNGkMmqtDyhksUyg6yCmj17kqHmU+a9S90jDNhs2q5PSl2zP9fdP52prZBKU0GdrOPW4rIRmrc1KhL92O7aonjVGXiLDMRN/Bc2Buve5aihvRP9Nui6GU31s2r14lu8KrmS5KanTGExulzLTUML6dO2U3C5PTl27XSWq0N8B8Zt2leprddMaan0Ja9vqkZzrI73VQSTXWve3Rp/eF1vO73vJJlD8wPP84eywaBt+dIzRImJy516Hnj7bNaHL60u1xh8HYtYmSIzRIUGbPmKmtOf74ku3L2FTlMjTMjEfJTxm1cxqm2a1ZlZy+dHumv286X1szmyJMzWu+e9xWSTK25PgLkGxfjo+Q5lm3vNAfR/oB9M138dt0L6HXzf2L9pYLaeb+6+X0/DFwRNOnn0XlMrzQM12UpGQPqaTmNDv30po91bwXTd186XadpEYnt6itfEg1if7+uVioPs3ZFB338dokyHwY2antzHLdm+9ftr5Lz9/74lX+wPD+x9np23HaaHwH9KLh12ezp6LjJqlWy2ZVcvrS7WhSPXEbaYtqNEuU1ouGX5/KT0azXFVueKGqZEQ0LZOzRmc82jeS9Sm/76Jo7expqVbLZlVy+tLtmf7aqClBardBz16yOkeCfw66+WDqkJxp2RvA/f5l7pO4ndruuESELcNcdyH5TdncQ3ek36OROaitoYEnda6Z0hNuaNqaXz0+cET1qT5u9Dp4H8/XYGrrh6rd3OO2em50DuYcb6HoTIdxjo4gY5yfth4v173t0VOaKW3R819chPm36XSiWA4S1n37rg2rZ3Hr3uXkI6W2adnsUHMSk0FChAYJqeKv8tcAACAASURBVFVd1tqnPH7LNk/nzqc611EHnpnOUV4zvW0zGk7/VEnNrx4lJ6NmVk+UNP1N5yBfuw8Kd8lRfxkzU2nrHY2PEGG97/WTHNddS+mCrHtJTMhQzqC2hqonhIs+x21VLmMy/9m0yK+7qI/01tgzjnp/t8e718zmMNq6mT8ZnU8b7BLvTHpzBvnadNFY97ZH257Y6vl7X5jKHxiLB5lJiO+/6YZWYc/vCb0c+WWoamCk+8CVQaqqmZ5Qo9XzbP7iQQZbqFaG7z5j1+YzngCoT21Uax11jVaP56vtolH7VE806fl70e350aE+oNq5enpTjSn1+gy6Rcg/x00WB4iEpxp6cs+O3wnrRZP/iiJM33k1a/KMl6pyI5V4aNFedy2Nb0SPuh3DVI+GTKFYpstYAqLnb3Z7qrM6aC/39JwDf5SnGTbmp25p6QM3Q02nqp6K1gexeLRxQjSsbcdTafiBse5tj4a9r7Kev1nlybKrMTjCfCi+g9eLZ/y9W/17F4D73VZhz0jJsVwxXuqzeJzF/JpQj9DLcb/btcPAUwuTJ5aV1divHb2b20LX66wOM8ZkZ23a65n67JIfPesxU/PJNE1eR1UodXZ/2Kl2cbbaYbxFNKxt077NtmPnab+YH98o02fMWr+HyqP/a9gL6wk96n8bhcprSfJ4hxQaL9ddS4PrsIaSJ5bpU0O6v3dVp4aqVb6a9ELK9ISwVduTAkpTrZfI3h6NVuqTZtZGMjxTyYqmbmmZapvlnuNt3e92M8edsr3Kt05+D/Vqa4l71r3t0cG/qL1nz68c/9r0r24VVkO1W4zxjbLYufnNujqrZ9BZI+mG8EvCo7LVTR43ZqKRr8x6dfkMnuZ2bVL7ND3eJNl+ENnKkafJKtKaU3lITdRWQ6pWhufUtBRtLrVdc2aPylYfedyYiUa+MjV59TQfdNoudfOobHVOyfLLUIkMhTTnuIkKfXh3yvbO3jz5PdSrrSXJM//DsEN+EpamWVzqO+xi5ikJW66lUwbWTXzW7jvuG0oiNWw6Uw7LdQTu+LavO+m4yr+hjzNvEY27JI3adKacWN6XxvwZmwe/i7N5zKbzLie6+5yIsD2f4B2vpbeRKc2DNJ17PvIP7nXHt333x/V+t1fzRE1nhTmZVguv4Ln18PMAm8dsOud7krmawLwCezwe/CRsmfPtrqV30ij1LOGpvw61/CDJmCBwu7d94kykPOp9HJ77/ohr5qHWU89U3TGnnvQTnu8Fn9RTvw0W8yPCpp5j3Ezffr4ErsHEbylQdCgZAwKEVhO4y0u++oAfXqhbWcYbA/mEM6bHpyPLSAksr0ng6qrimtSYCgIQgAAEIAABCGwkgAjbCJByCEAAAhCAAAQgsIYAImwNNWogAAEIQAACEIDARgKIsI0AKYcABCAAAQhAAAJrCCDC1lCjBgIQgAAEIAABCGwkgAjbCJByCEAAAhCAAAQgsIYAImwNNWogAAEIQAACEIDARgL7izD9M3AbJ7tUOX+F0qUeRx3mmn+F2Oun2uVF1Zew/zOOlfkrPfFXH23csfcXk+rvVeolbNz3uPLewLufyBv2Nj3umG/cuflii/alDn7cVE0Ilzr7ocN8hAjb+G9TxsV26GO4S/NQFRec9vVyZ+Yf6DxlqsfjseWN3fjFctC7sf3bdK9Dz3/QQXZs25u8599l60Obr5jwavM8e4Tm/OF8sdhtTuLHOW6qxa19jPez9xdhF2S08V5Zd6XpApYxTyZK5vNflrk4mA67mDk5c2p4qX+taK8zTqKYT1v3xkb/jV8s80M+lbn923TvStve+amD7Jh8yomuhutq8zz7fK8z/4mTnLj1s8/riHxE2DLVdVfalht6S+3yeTZkjAer0e2aqdlze9sNDP4orbP9ETvVWvfGxsiIsFMf3RObI8Iej8a/ifkEwQukXkd/nDjJiVtf4BXY9R/wjm/f+vTjyRm/ZaJl5MTy8XjIX38ZxUMpOihPVVr6bIv2uittcEPXUPKkZZ0wEvTpCVWgJI+q0i5pmf64LVVpqa1ruUJhqCRlaukJqlW05/GqdFI/gqeplRLqLnXmXlWzszubU3m3GMM9Xu7+SXvdGxvN9dWU9pJfX0TNL0NFVS5P82tfaYcag+/yzVB1Vs944MhPnyoZ+6UtBps+G6r51aPxBkavKvz69A5VLCaPqlLztBSWaJ6qtPStx7ZK3FCJO33g8GsYLVW4aKTOtbkSUivtpQSvXRxppqqZ4860Y2xa53SPl7t/0l7xT2JPdr5I2iE/CdP3ax1Snmq49op85dTyZkLk+5WQOqSl2k4a66603r0em3rU7RqtQ/qlrttaaanb/DJlSqCoc9MzM3ASGWnm5lKb1ql6YwwyK7E6di1PHm9SyzVwMlKTZmHK8aXbqfNgueKN1ReRG76F/HL6l5Xb+oqOTIWqoVZHG82bw++GsH0M97jtOT075delCiOk8ZpLJbuhEjlV64aiuqHDEzkenbSbhT6MdlfDVDK/TJnpCPseJO01OFFkKiEV6tQ9I+Wnpaqa/nBq6wTES9xugvImzQRN4kZtm2YYL5vl3r9pI8KaWBac+m6rPHmqkb5lR4nSmtHk9ORanpI10ryx4krrCQXfVJe6DEWfunpT8mCZQrGdnDIGY9Sc1ES1Y8P7uF271WiP7WSm0mRoVPe4rYRkrM5Jhb50u9JIA/SW697Y6Fa/mnp+ZcrweeQcGJ5/nD3+1j+I6qKSMTlk6pmWqYlH3Y606qn33KBhDaltCk0um/Ok2pQzWKaQZgvgNTrjScP0lqlVWqYqj7qdBk5VdTlfWzObz11pMrSpe9xWQjJW56RCX7od21VPGqMuEWGVybJH33aVKk81miJJac1ocnqydnRjMcGTq73uSovb1D9T58VQyu8tm9e2kl3h1UwXNDU644mNUmYsk1Mj+abJrt2aTTY66y7V09zCj9CcPCUMctJzUWHdt3qU3DPWvbHRrffF0vOnL0aNpPyBoeRDjbGEGtwKERok9MZOJWmZqjzqdqRVT1zGqYkvmyXebZDgfZr2TG3N8UeQbF/6kGPNodnqXgqNjVSYlqnWo25HWvWkci1rZvUMevaSF1kNCgezKSSj18cfYrJ92ZxTzT/WuNAfR/oz0DfuxW/xvYReN/cv2lsus5m7s5fT88fAEU2ffhaVy/BCz3SVkJI9pJKaM9NZraJcn71a38Xt8Rjzmb6vhpHhUe3YNJo7psxejvuTINMkbqS2M8t1b69/6fkuPX/vC1D5A8P7H2enayBt1LtXIq0XDb8+xz1TE1W50dsu1Sot7ejLZokSelEfZkCsWZ5qa448MnSQupdyZAyGrzkpORIGuzQnUZUbzcynhEWdtnp6u4w38jndHnSLkD57kyhhMIDXOmqfxG3viY0IW34H1l1mfss29xhcsYPaGhp4/HaXEkrDqFyGEmY8kVwzfbsadY/btVuNemeN+pSz7uJ9ZqLbc3QuGfM967TJs+6NjSbSTKlnz39xEebXQzpRLAcJq68NL0z90zJdbOPo4sCLCT5Yk8aic92EqvIbOp1dW3vyYr6SVT5pRKF/qrD2dI/bUVI9apWMmlk9g5695B5J7T4o3CVH/WUMTqEdMYLAR4iw3j0x+RKsu9LS5Vr3kkKSoZxBbQ1VTygSfY7bqlzGZL7SwhiUD0JN8eT5bvc2GvhrucYehJpTqdCNcZNxn3ju6ekvNvTde/a6Nza69cRWz9/74lL+wOjN/5Q/vu+n21oden5P6OXIL0NVAyPdQymzRt3jdhQ2PalnWtYSJeggMhSaNGrzGU+oBH1qr1rreqJGq8fz1XbRaPZRVY26x+0o6Xkq5F6mtpZRM8cnbeaPuykqY9xkcYBIULdxvqeN7fidsHHOraNXFGH6ri2yyTNeqsqNVOKhRXvdlTa+TT3qdgxTPRoyhWKZLnLd/T1/s9tTndVBRp1EDWVEcspsRlPb3lJ+Hdk9Pady0tbyh5GiFeZi/3FCNKxt075pqpnlujc2Ove+Unr+ZpUny67GzFkWc+LmqBfe5B3Qu3jc7/bkPL201CqWGr4Z9VYpwUOyeznud1uFM0YtTJ5Y6kTqOfantFg+1VkdZozUOZWkaJq8GW12qBDSO5k6e5O0S4SaTlU9FV2cTW3dGGwRDWvbQYl3Htj8Yv4ATg7FN9n0GUn1+688+r+kvTC3/v6vEPO/jULltSR5xv1Tsi/XXWmDq7SGkieW6VMjub93zaeGqlW+mvRCyvSEsFXbExA1IXliWbu5fyaqIb2/T1UbpuOkQq9NzVOhlt6h6VSComH0/GnfSEu14+W6NzZ6+hem79LzK8e/vvwrVIXVUO0WI77L1+/+9f8ub+7SvCSqs3qa3cKpkdxQfnJ6Zw+532tl94xeYULUTBv3TOMp2f1JZ6QcLd3w8uaQGlWGl2vHXjQlxzJtmmo9qv69wtpf5YNQnHSwb22SksfNa7IaJsjep5njTtleJUTNziqRkWoXl+/9w7BDfhK2yDQl6Ltz8l9kueVKO+sIK25uRj2LwO773vGN3R1CXAxHtB33jJsm5TSdKUc3WfXL07zkFL2yMUngNUdoDtN01nkm02ohntUEEGGr0c0WIsJmSU3nIcKmUb1hIiJsRtAc9OCbl3TTWQcYp42jtdulPJcavjlM01kZTqbVQjzrCLy3Ans8dv1ni9Yhnv/zxNX9Nxbe7kq7kQLTH71tfEaUO4HbvbE+/N3tekmHZ+aHWLX27jRi/qudq87DM7rgm/b2vw0WzPnjyKl3L261bz9fAtdg4pBf6RebBvlXCN1LMl6B2GCGu7yogyO8QUg3uozJQ1VxMFl42bRnCbzsIBpMxuTW7/eMJg9O2kEErq4qDjo2bSEAAQhAAAIQgMC5BBBh5/JndwhAAAIQgAAEPpQAIuxDHzzHhgAEIAABCEDgXAKIsHP5szsEIAABCEAAAh9KABH2oQ+eY0MAAhCAAAQgcC4BRNi5/NkdAhCAAAQgAIEPJYAI+9AHz7EhAAEIQAACEDiXACLsXP7sDgEIQAACEIDAhxJAhH3og+fYEIAABCAAAQicSwARdi5/docABCAAAQhA4EMJIMI+9MFzbAhAAAIQgAAEziWACDuXP7tDAAIQgAAEIPChBBBhH/rgOTYEIAABCEAAAucSQISdy5/dIQABCEAAAhD4UAKIsA998BwbAhCAAAQgAIFzCSDCzuXP7hCAAAQgAAEIfCgBRNiHPniODQEIQAACEIDAuQQQYefyZ3cIQAACEIAABD6UACLsQx88x4YABCAAAQhA4FwCiLBz+bM7BCAAAQhAAAIfSgAR9qEPnmNDAAIQgAAEIHAuAUTYufzZHQIQgAAEIACBDyWACPvQB8+xIQABCEAAAhA4lwAi7Fz+7A4BCEAAAhCAwIcSQIR96IPn2BCAAAQgAAEInEsAEXYuf3aHAAQgAAEIQOBDCSDCPvTBc2wIQAACEIAABM4lgAg7lz+7QwACEIAABCDwoQQQYR/64Dk2BCAAAQhAAALnEkCEncuf3SEAAQhAAAIQ+FACiLAPffAcGwIQgAAEIACBcwnsL8K+/u9/5x6st/vf/vHT3/7xUy+a/JGszxSdX377ucv5f//9n/HffDcyIQABCEAAAhB4AwJdcbDibKG+VPj19SX7OsZTIkxjr6uK8m8//6knwpBfIowBAQhAAAIQ+DQCO4swx+cirP4waV7W1Mzq8X3H9rradVWPx2OgwB6PByJs/LCIQgACEIAABN6YwG4izCWXeMkZIsb/HHBe1kSVatNSe00a8/t6w3VVYwWGCHPC2BCAAAQgAIFPI3AhESah5sbj8UiqKy3jgXmJ5JqeZYoqIfxKi70UnffXPlGLCHOG2BCAAAQgAAEIOIF9RJj/Ntj//V7+b78Qln4SJkVV5U7SMb5Mqistn2qVkn2XgFI9A78nux0liwqMn4T5i4gNAQhAAAIQ+DQCu4mwACcFFvJrRxFW9VPsWNWPZ9aoe9wedPOGej8WaxFhYoUBAQhAAAIQgEAlsKcI08/D3IgtJVn0h33ypIS6bJY0nTqemsuooUlpVeeZ9CDCxBwDAhCAAAQgAIFK4NUiLKRPFUBJLfmyqbeaTh1P5TJqqM7Q9ERhr0/4/VMbjUUY/3+RAoUBAQhAAAIQ+EwCh4gw/TZY/ePIsQhrqhnpLX9CclZ55FqqRt3jdjSvnp6/l6khxyIs0pBiwoUBAQhAAAIQ+DQCJ4gwiaSxkNKTUJo8UnJq5SF3VqnkHrejQ/X0/L1MTYIIEwoMCEAAAhCAAAQqgUNE2OB3wmKCUDBSV2NBozSf3p2pfLAc75uiaTvf0U/haW4jwpwGNgQgAAEIQAACicCeIiz+FFL/f5H6s0j/0VRsX+WOPG4oOQ3tPwlTTi2socEkobGiibbznrIVVTeFklBb1GH8caTDxIYABCAAAQh8FIGdRdg6dkn6RJOmc13/s6oQYWeRZ18IQAACEIDA9QnsI8L0m/jrDtzUW03nuv4nVo11GD8JO/HRsDUEIAABCEDgXAJ7ijD/80e3F09Y9VZ40p/uLfa5ZsJAhyHCrvnImAoCEIAABCDwAgK7iTD9Qpj+0vynppfqkvFU+cWTv/3c5Rw67H///Z8XPwLjQQACEIAABCCwL4GuONh3G7pBAAIQgAAEIAABCDgBRJjTwIYABCAAAQhAAAIvIrCPCPvrX//6ww8/vGhktoEABCAAAQhAAAL3J4AIu/8z5AQQgAAEIAABCNyQACLshg+NkSEAAQhAAAIQuD8BRNj9nyEngAAEIAABCEDghgRuKcJ+/OXXH3/5dRfa0Uqfu/Tcq8k1p+qd7s9//+b/9dLwQwACEIAABCAQBD5dhOk92FHYqefYWNzxjiJsfGSiEIAABCAAAQiIACLsXygWJZGQ7WW8fse9Jm/2iR+DNUM4IQABCEAAAhCoBBBh/2Lyekn0+h3r49/RgwjbESatIAABCEDgEwjcRoSFZPFPfzw9f+SMo57jPd2vDp4QzsfjoWj6TTX3eyj5tVRzecKQX0YvQfmeoKowBqGUkArHS0TYmA9RCEAAAhCAQCJwDxEmbRHTD5YpJIWkY7sYkrOmaSPlSLssemZqezuquZrUgdMZfdkbUm09OWZQSEZtotDAQIQN4BCCAAQgAAEIVAI3EGFJNyT58my0IghP7VMzU05apsFS+VPJqp2sUpqMXoeaoEwZkVPFnxKaBiKsiQUnBCAAAQhAoEcAEfYvMvPqRChnSgbJM+U1p3pc/NVo8sTyWYGlUwwMRNgADiEIQAACEIBAJfAmIkzaQkYcNUmQen55mpnq5sa4JEW9MEmf5o4qD6PmVM9TIkzJGiztuHqJCFuNjkIIQAACEPhMAm8iwnoPrylZmsk1c9FTE9S5hmY8KpcxWaU0GYMOKZSkoaLPGoiwZ4mRDwEIQAACH04AEfavF2BGvqSctPQ3qYaqRz+U8sJk16rq8T41Wj2+RTMazmfFGSLMwWJDAAIQgAAEFgncQIS5yJDtEqGpJHTyFPVC5ajtwFOlSer8VG0kDzoMElKVL91udkjHr/lCkTL9dE0bEdbEghMCEIAABCDQI3AnESbFIEOnCo9/KuSqogoLL5GtWnmiMJYpqmUyxrVKTmnhd6dslaQT+aEiuWZWT7Nt2t2rFm1E2CIiEiAAAQhAAAJO4B4izCfGviYBRNg1nwtTQQACEIDAZQkgwi77aG42GCLsZg+McSEAAQhA4GwCiLCzn8C77I8Ie5cnyTkgAAEIQOBFBBBhLwL99tuECNPn25+XA0IAAhCAAAQ2EkCEbQRIOQQgAAEIQAACEFhDABG2hho1EIAABCAAAQhAYCMBRNhGgJRDAAIQgAAEIACBNQSuLsL++te//vDDD2tORg0EIAABCEAAAhC4MAFE2IUfDqNBAAIQgAAEIPC+BBBh7/tsORkEIAABCEAAAhcmgAi78MNhNAhAAAIQgAAE3pcAIuyoZ/u3f/zk/x21Taevtu7Ez3Ffc6pzWLArBCAAAQh8PAFE2OGvQCiPw7f5foNT5M7iSU+Z6nswrCAAAQhAAAJXIfDpIkyyQMb8k1GJjGZtRJuhFU7tJWNFk4NK9j3pQUPSFgIQgAAEIHARAoiw3/7QcN3DmNQck2mTM9Ru1TPZave060yy+9FoCAEIQAACENidACKsK8KqpEietOw9m15a+Gt07BlHH4+Ht636UuWe5pP3/JHTi7rfbXV2Z3MqZWoj93i5+7EhAAEIQAAC9yWACOuKMAmaeLqhA/xJV49HZTfT3Ol23StF07Lmz+zrMsgb9uzmLt6kmaBJ3PAt5E/OwTKF1AEDAhCAAAQgcDsCiLCRCAsdFg91neZISk6tUreqLZQgo1fb3GLeqa1l6CV2j9tKSMbqnFToS7cHBNIkLCEAAQhAAALXJ4AI+02E+X/pmU2GqlZQnxqa98xkzuutXmaMOt6rRnVAGVtyXGsm25fjI2gSDAhAAAIQgMD1CSDCFn4SNrj1ZzRHszwK62d6XZr9j3DGvnUe38vtNKeWW3K81lVX+OunNsWAAAQgAAEI3JQAImxBhPn1n56x64YU8mVNqx7PD7u3b7N2o9N3rJPMRLfn6Agy5nv2ZsYPAQhAAAIQuDIBRNiyCIvn5z+ekac668NOqqL5s7FmlXbx6Hy3mjneupmvrcfR+bRBn4CZkA7ytenj8fj6/X/uwYYABCAAAQhcnAAibCTCXAG4HQ+1epoPu5nWdKrco25XFZWi6lAzZ2YedKsNk1qa6V+bpIEjwZ3jEmWGCPv6+pIHAwIQgAAEIHBxAoiwrgiriiR50jI96YimT89JIWma2tY9vSp1rgnqPCNoark6q9zn8WjY3kFRd8pWNBUmf9q3tzs/DKvc8EAAAhCAwJUJfLoIu/KzYbanCCDCnsJFMgQgAAEInE4AEXb6I2CAHQigwHaASAsIQAACEHgtAUTYa3mz294E+G2wvYnSDwIQgAAEXkQAEfYi0GwDAQhAAAIQgAAEnAAizGlgQwACEIAABCAAgRcRQIS9CDTbQAACEIAABCAAASeACHMa2BCAAAQgAAEIQOBFBBBhLwLNNhCAAAQgAAEIQMAJIMKcBjYEIAABCEAAAhB4EQFE2ItAsw0EIAABCEAAAhBwAogwp4ENAQhAAAIQgAAEXkQAEfYi0DfapvdvO557hGtOdS4TdocABCAAgVsTQITd+vG1h+/9E9ft7OI9Re4sznzKVIUNDghAAAIQgMBuBD5dhOlqlzGPdlE3zLfaN7M3mM4oY999t3TrzbylJ7UQgAAEIACBKxNAhP30t3/8tO4JXVY39Aar/upZh2J71XUm2X4WOkAAAhCAAARmCCDCuiKsyoLkScuKOxL06QlV+SWPqtIuafl4PNyTqrSMrT2z6VF+zfSNPC0dSiH3+161s0qSoQ49v9oqs+nx8pTJEgIQgAAEIHAiAURYV4S57Eh2PLC43XsPz0WVdICSU+38MmU+NVitbZaPnfVclUbdKHm8SS0XpWSkJs3ClONLt1NnlhCAAAQgAIHXE0CEjURYyJF4Kut0g55oUgCDZQpp9xigRmc8qYmmGustT2tmamsZKnGP20pIxuqcVOhLt2O76kljsIQABCAAAQi8jAAi7DcR5v8l9IuhlN9b1uvfVV2yfRkNVS5DG814UhPVNqXVU85eZ5/Kbd/a7S05jivZvuydy8fAhgAEIAABCLyMACJs4Sdhg5t7rBsimj79uapcRkTTMjlrdMaTmjTHWOf0zjGJf3rU+1e7nmI+x2tddfkkbtfOeCAAAQhAAAKvJ4AIWxBhg8vb7/705Gpo4HHd0NN8KpehHWc8kVwzF7fTLr3MQWfVNvdVdKbDOEf9ZYzz09YsIQABCEAAAqcQQIQti7B4MEkqPStKkj7wnqlzLzPSarR6erPVzOrRYGmqXs9BfoTGhcqZSetNG7X6VM9BvnIej8fX7/9zDzYEIAABCEDgBQQQYSMR5re42/FgqkcPLIVi2ZM1PX+z21Od1aE5cGrlyc1Q06mqp6L1yEeIsJmeEmFfX186CwYEIAABCEDgBQQQYV0RVlVF8sQyfeqZub+nBlJD1SpfTXohZXpC2KqV4nFPc+uaoNrBRtq6liuk8ua+SvMOTacSFA2j50/79nbnh2GJJ0sIQAACEHgBgU8XYS9APNiipwkGJYSOIIAIO4IqPSEAAQhAYEwAETbmc2wUEXYs37nuKLA5TmRBAAIQgMDOBBBhOwOdb4cCm2d1UGbIL34b7CC8tIUABCAAgTEBRNiYzyHRkF/+61aHbENTCEAAAhCAAAQuTAARduGHw2gQgAAEIAABCLwvAUTY+z5bTgYBCEAAAhCAwIUJIMIu/HAYDQIQgAAEIACB9yWACHvfZ8vJIAABCEAAAhC4MAFE2IUfDqNBAAIQgAAEIPC+BBBh7/tsORkEIAABCEAAAhcmgAi78MNhNAhAAAIQgAAE3pcAIux9n+3zJ9NfYDb4i2SV83z7TRVn7Tse+ppTjWcmCgEIQAACFyGACLvIg9hzjIGEmtxm0OEs2XHKvgMOQfKUqSYfImkQgAAEIHBxAp8uwnSJyph/YIs39HyrfTPHg82cdNzhiGk11aX+IYFXctiXKt0gAAEIQOD6BBBhP62+9S97Q48Hi/OOTz3usO9rXfeqnn13nO92nUnmZyYTAhCAAATuQgAR1hVh9QJOnrSsjzwS9OkJVQMlj6rSLmn5eDzck6q0rFt7lUfDbkbVrRnVJDVN+R7Spor2PF6VKGlTGb1u1e8nrdG0qZZpyOpXW2U2PSqsJ0qFLCEAAQhA4F0JIMK6Ikz3ejz7uDX9PaieFNVSN27yrFjWTWc8daNapZx0cPeH3axNTl+G7WqjRtMunqDQwDnTvJYnjzcZnFTzDHJqZ2/uUbdTZ5YQgAAEIPDeBBBhIxEWciTeAL9E5anO3uuS7trBMoXSXjU6zwuRjgAAIABJREFU49FUPrDbSkjbJf8gmsbwpdu1Q432VOBkptJk6BTucVsJyVidkwp96XalkQZgCQEIQAACb0wAEfabCPP/0sNeDKX83rJ59SrZ9VDNdFFSozOe2ChlpqWG8e3cKbtZmJy+dLtOUqO9AeYz6y7V0+ymM9b8FNKy1yc900F+r4NKMCAAAQhA4C0JIMIWfhLWEwQDf7wocbOmT3+HdPXK8ELP9L1SsodUUnOanXtpzZ5q3oumbr50u05So5Nb1FY+pJpEf/9cLFSf5myKjvt4bRJkPozs1JYlBCAAAQi8PQFE2III0x3p92i8Fn7Lphelhgae1LlmSk+4oR1rfvX4wBHVp/q40evgfTxfg6mtH6p2c4/b6rnROZhzvIWiMx3GOTqCjHF+2polBCAAAQi8PQFE2LIIi5fAVYU81dkLpZtYaSFfYilnbatyGSqpHkki5TQ9PefA35uwOYN2r1H3uN3rP/DX8sG+Ci2eUZmD/oOpFIqN1G1+36/f/+eF2BCAAAQg8GYEEGEjEeYXsNvxElSPXo4UimVPWvX8zW5PdVaH3t2fuim/54+EGq0etWpu7fluN5PVKmX2hlH+uFuN1gdRc7z54gDRsLZtHiR1DhH29fWV/CwhAAEIQOBtCCDCuiKs3pTJE8v0qTfD/b27PDVUrfLVpBdSpieErdqeFFCaar1E9vZotFKfNLM2kuGZSlY0dUvLVNss9xxv6363mznulO1VvnXye6hX+3g8+GFY5YYHAhCAwDsR+HQRdu6zjAv43Bl22b15kKZzl+0+pAki7EMeNMeEAAQ+lgAi7MxH/zYypXmQpvNM3LfaGwV2q8fFsBCAAATWEECEraG2S807aZR6lvDUX4faBd17N+G3wd77+XI6CEAAAiKACBOK1xlvKVB0KBmvA8pOEIAABCAAgRsSQITd8KExMgQgAAEIQAAC9yeACLv/M+QEEIAABCAAAQjckAAi7IYPjZEhAAEIQAACELg/AUTY/Z8hJ4AABCAAAQhA4IYEEGE3fGiMDAEIQAACEIDA/Qkgwu7/DDkBBCAAAQhAAAI3JIAIu+FDu+3I1/zbK6451W0fMoNDAAIQgMAsAUTYLKkb5YWquODAp8idRRqnTHXBp8NIEIAABCDwYgKfLsJ0AcuYfwCLt/t8q30zFwfTYRczJwdLDS/1F+XvdcZJFKRBAAIQgAAEJgkgwn5arRgue7uPB6vR1QT0kjV7bm+r/luMOtuWbtRCAAIQgAAE9iKACOuKsHp5J09a1kcSCfr0hCpQkkdVaZe0fDwe7klVWmprT5bTDZWkTC09QYWK9jxelU7qR/A0tVJC3SVyZqqaOe5sTuUzxBju8XL3Y0MAAhCAAARmCCDCuiJMd39wjBvXmVZPimqp2zp5VizrpjOe2KhmagAlyJNmbi5Tspbq1lQ2Paf7fdSe3dzFmzQT0pCDHN83vQxpmTKbW+CEAAQgAAEIJAKIsJEI8x9+rLvdhTvd04NlCkUHOWX0Oid9oLSB33Pc9r3cjhz3uK0OW5yqldFsW6NKk7E6JxX60u3YqHo0AAYEIAABCECgSQAR9psI8/8SpsVQyu8t6yXtqi7ZvoyGKpehjWY8qYkva3mzc01zj9vN8hVOH1LlSUo29/XklJ9CWvb6+INIti8nd9F2GBCAAAQgAIHH44EIW/hJ2OB+7d3c8WJFNH36O6dyGV7omT5DSvaQSmrOTGe1inJ99mp9F7fHY8xn+r4aRoZHtWPTaO6YMns57nfVpTGSkdqyhAAEIAABCAwIIMIWRJjfsomj39CLoZosj9/uUkK9hqpSwownkmumb1ej7nG7dqtR76xRn3LWXbzPTHR7js4lY75nnRYPBCAAAQhAwAkgwpZFWPBKUqmnJ5Sc8tMtrrTo44+klxkNa7R6BrPVZHlkaBj3uK3hdcZxVA17g9VylQxCvW6qlTFuMu4j7Oo2zvc0bAhAAAIQgMCAACJsJML88nY7gFaPQKdQLCVZUlrPn9Kam447q4OMmq9RZfhGmq0ZTW17S/l78iU19/xeiXJSrQZWwmKHcUI0rG3Tvr4dNgQgAAEIQGCGACKsK8LqLZs8sUyfgu7+3jWfGqpW+WrSCynTE8JWbU9A1ITkiWXt5v6ZqIb0/j5VbZiOkwq9NjVPhVp6h6ZTCYqG0fOnfSMt1bKEAAQgAAEIDAh8uggboHlB6EY3941GfcGDYwsIQAACEIDAdgKIsO0M13e4kbK50ajrnweVEIAABCAAgRcSQIS9EPb3W91L1txr2u9Js4IABCAAAQhckQAi7ISnEoIm/WLTCXM8syUi7Bla5EIAAhCAAASWCSDClhmRAQEIQAACEIAABHYngAjbHSkNIQABCEAAAhCAwDIBRNgyIzIgAAEIQAACEIDA7gSuLsJ2PzANIQABCEAAAhCAwBUIIMKu8BSYAQIQgAAEIACBjyOACPu4R86BIQABCEAAAhC4AgFE2BWeAjNAAAIQgAAEIPBxBO4hwv7892/+38c9JQ4MAQhAAAIQgMDbEbiHCBP2kGJaYkAAAhCAAAQgAIGbEkCE3fTBMTYEIAABCEAAAvcmgAi79/NjeghAAAIQgAAEbkoAEXbTB8fYEIAABCAAAQjcmwAi7N7Pj+khAAEIQAACELgpAUTYTR8cY0MAAhCAAAQgcG8CiLB7Pz+mhwAEIAABCEDgpgQQYTd9cIwNAQhAAAIQgMC9CSDC7v38mB4CEIAABCAAgZsSeB8R9vX7/276GBgbAhCAAAQgAIFPI/BuIuzr6+vTHiHnhQAEIAABCEDgjgTeR4Q9Hg9+GHbHV5CZIQABCEAAAp9JABH2mc+dU0MAAhCAAAQgcDKB9xFh/Bjs5FeJ7SEAAQhAAAIQeIbAO4iwkF/8Ntgzz51cCEAAAhCAAAROJnAPEfbnv3/z/05mxvYQgAAEIAABCEBgM4F7iLDNx6QBBCAAAQhAAAIQuBYBRNi1ngfTQAACEIAABCDwIQQQYR/yoDkmBCAAAQhAAALXIoAIu9bzYBoIQAACEIAABD6EACLsQx40x4QABCAAAQhA4FoEEGHXeh5MAwEIQAACEIDAhxBAhH3Ig+aYEIAABCAAAQhci8CdRNiPv/wa/10L4cun8b8y7c9//5b2H0dTMksIQAACEIAABM4igAjbRP4UURgya3HuybTFPiRAAAIQgAAEIHAEgTuJsCPOv7EnImwjQMohAAEIQAACH0sAEbbp0SPCNuGjGAIQgAAEIPDBBO4hwkLr6NOfl5w//vLr4/HQMnJi6f5I63VI0UG5NkpGr7P7ZatWnhlj8s8ZJ9NmdiQHAhCAAAQgAIHdCdxDhOnYUkXVo5AM116R76GmJyXE0pVZM0HDuFEzPeq7e/+aUz2T6moyrfbHAwEIQAACEIDACwh8hAhzjq6N3FaOO92OhORJSzWR/nNPtaMcEVbJ4IEABCAAAQi8PQFE2G9/iOn/c13ltufIHiSsE1jqPDAmf8Q1mTbYiBAEIAABCEAAAscRQIQdJcL0w7Dd1dikuppMO+7dojMEIAABCEAAAgMCiLADRZi476vDJtXVZJqGxIAABCAAAQhA4JUEEGGbRJh+3LX4zJp/cLlOnE2qq0Ha1+//W5yZBAhAAAIQgAAEjiPwWSKsKqHkGS+bjyGVKCf9un0zLZwpUx16xkBdeckgLUTY19eX52NDAAIQgAAEIPBKAvcQYRIrbgQmiZtq6MdUtcoRezTpIfX0/Gp7B4+6P3WONCV41aI9UFdeO07jh2HOChsCEIAABCDwegL3EGGruUyqqNX9TykcqyuNNE5DhAkUBgQgAAEIQOAUAoiwU7Bv2nSsrtR6kIYCEyUMCEAAAhCAwFkEEGFnkV+/70BdedNmGr8N5oiwIQABCEAAAicSQISdCH/l1qGu9Jm6yN8UYSmZJQQgAAEIQAACZxF4cxF2Flb2hQAEIAABCEAAAmMCiLAxH6IQgAAEIAABCEDgEAKIsEOw0hQCEIAABCAAAQiMCSDCxnyIQgACEIAABCAAgUMIIMIOwUpTCEAAAhCAAAQgMCaACBvzIQoBCEAAAhCAAAQOIYAIOwQrTSEAAQhAAAIQgMCYACJszOe36OS/8HiLfyJp/LeIjaPLpMiAAAQgAAEIQGCaACJsGdX7ibDFM/MXvS4iIgECEIAABCCwkQAibCPAP8pv9JOwP4buWIiwDhjcEIAABCAAgd0IIMJ2Q4kI2w0ljSAAAQhAAAIfQOAGIkziRn8s+OMvv/qjmUxQear1ZfwGmDwq0RYKhZESmoM1a+X0Dt6851eOEuSZMSZ/xDWZNrMjORCAAAQgAAEINAncRoRJ30i+6DxVjniO2/ot+1TbW479851TpsbQoeSJHVO+p6WRmiHlVGNSXU2m1f54IAABCEAAAhCYJHAbEebnqRolaRElyOiVp4S0VFX1jz3jaJJcsYuXuK0ZkhE56eAppy4n1dVkWu2PBwIQgAAEIACBSQLvKcJ0+KaaSU7XMW6ryaJmikxv63aNNhvW7XrDeOaz9qS6mkx7dnfyIQABCEAAAhAQAUTYv/4asCDS0z2Loirpqsivn+JeGyqkSbw8RVcvJ9XVZNrqMSiEAAQgAAEIQAAR9ocIGwijGhp7ajS9aosJyo/MnjpU2qQxqa4m0yY3JQ0CEIAABCAAgUoAEfYbk5A4A6FTNdPYU6MJ/WKC5zeTwzmY2TvInlRXg7Sv3/+nhhgQgAAEIAABCKwjcD8RVhVJ9TiLFE3LyFwhwnp//qitmxvNR5WZNpI/+p8lwr6+vjQJBgQgAAEIQAACKwjcRoRJc1TZMZY7EjHqUDH1QvK7ofLkjKWidV+fvCZ7Ya1NUU+ooYFn8CMurxqn8cMwZ4UNAQhAAAIQWEfgNiJs3fGoSgTG6krJ4zREmEBhQAACEIAABFYTQIStRnfLwrG60pEGaSgwUcKAAAQgAAEIbCGACNtC7361A3Xlh2mmhfzit8EcFDYEIAABCEBgNQFE2Gp0tywMdaXPdAb5myIsJbOEAAQgAAEIQGALgRuIsC3HoxYCEIAABCAAAQhckwAi7JrPhakgAAEIQAACEHhzAoiwN3/AHA8CEIAABCAAgWsSQIRd87kwFQQgAAEIQAACb04AEfbmD5jjQQACEIAABCBwTQKIsGs+F6aCAAQgAAEIQODNCSDC7veA+Ysk7vfMmBgCEIAABCBQCCDCCpJnHIv/BOQzzWZz+Uu8ZkmRBwEIQAACELgwAUTYpoeDCNuEj2IIQAACEIDABxNAhG16+IiwTfgohgAEIAABCHwwgduIsJA7VfSMPYr2yh+Ph4d+/OVXfxkG5alKy1quJh4Ku1lV05KHP45MQFhCAAIQgAAE7kjgHiLMdYzbQdw9brvAqplNz7hcDfWkU778zUyP+u5J+dW05EGEJSAsIQABCEAAAnckcAMRVoVO0xP0k6BpZiqnRpN4qgnJk5b+BgxCSosczSP/2ECEjfkQhQAEIAABCNyCwPuIsKagqUrIPW7rabnTbSW4MUiI0LMCy5v3bERYjwx+CEAAAhCAwI0I3EaESdPISJSbeqg63eO2urnTbSW4MU6IqD69cIuNCNtCj1oIQAACEIDARQjcRoSNeUnopJ88VZHkHrfV351uK8GNxYRIjrQ0m/d5ykaEPYWLZAhAAAIQgMA1CbyPCAu+SehUkeQet/V43Om2EpIxk5N+1UwdojbNrGjPQIT1yOCHAAQgAAEI3IjADURYT8GIsssgt2thii4m1HxtKqOXk6RVMy2cKVOdewYirEcGPwQgAAEIQOBGBO4hwqSWpFokXKq4cY/nu9+fUMqpIfc0be/gCe7XwM0Edy7aiLBFRCRAAAIQgAAErk/gNiJsHcqe8FrX7SJViLCLPAjGgAAEIAABCGwhgAjbQu+cWkTYOdzZFQIQgAAEILArAUTYrjhf0gwR9hLMbAIBCEAAAhA4lgAi7Fi+R3QPEabPI7agJwQgAAEIQAACRxN4cxF2ND76QwACEIAABCAAgXUEEGHruFEFAQhAAAIQgAAENhFAhG3CRzEEIAABCEAAAhBYR+DqIuyvf/3rDz/8sO5sVEEAAhCAAAQgAIHLEkCEXfbRMBgEIAABCEAAAu9MABH2zk+Xs0EAAhCAAAQgcFkCiLDLPhoGgwAEIAABCEDgnQkgwo56un/7x0/+31HbdPpq6078HPc1pzqHBbtCAAIQgMDHE0CEHf4KhPI4fJvvNzhF7iye9JSpvgfDCgIQgAAEIHAVAp8uwiQLZMw/GZXIaNZGtBla4dReMlY0Oahk35MeNCRtIQABCEAAAhchgAj77Q8N1z2MSc0xmTY5Q+1WPZOtdk+7ziS7H42GEIAABCAAgd0JIMK6IqxKiuRJy96z6aWFv0bHnnH08Xh426ovVe5pPnnPHzm9qPvdVmd3NqdSpjZyj5e7HxsCEIAABCBwXwKIsK4Ik6CJpxs6wJ909XhUdjPNnW7XvVI0LWv+zL4ug7xhz27u4k2aCZrEDd9C/uQcLFNIHTAgAAEIQAACtyOACBuJsNBh8VDXaY6k5NQqdavaQgkyerXNLead2lqGXmL3uK2EZKzOSYW+dHtAIE3CEgIQgAAEIHB9Aoiw30SY/5ee2WSoagX1qaF5z0zmvN7qZcao471qVAeUsSXHtWayfTk+gibBgAAEIAABCFyfACJs4Sdhg1t/RnM0y6OwfqbXpdn/CGfsW+fxvdxOc2q5JcdrXXWFv35qUwwIQAACEIDATQkgwhZEmF//6Rm7bkghX9a06vH8sHv7Nms3On3HOslMdHuOjiBjvmdvZvwQgAAEIACBKxNAhC2LsHh+/uMZeaqzPuykKpo/G2tWaRePznermeOtm/naehydTxv0CZgJ6SBfmz4ej6/f/+cebAhAAAIQgMDFCSDCRiLMFYDb8VCrp/mwm2lNp8o96nZVUSmqDjVzZuZBt9owqaWZ/rVJGjgS3DkuUWaIsK+vL3kwIAABCEAAAhcngAjrirCqSJInLdOTjmj69JwUkqapbd3Tq1LnmqDOM4Kmlquzyn0ej4btHRR1p2xFU2Hyp317u/PDsMoNDwQgAAEIXJnAp4uwKz8bZnuKACLsKVwkQwACEIDA6QQQYac/AgbYgQAKbAeItIAABCAAgdcSQIS9lje77U2A3wbbmyj9IAABCEDgRQQQYS8CzTYQgAAEIAABCEDACSDCnAY2BCAAAQhAAAIQeBEBRNiLQLMNBCAAAQhAAAIQcAKIMKeBDQEIQAACEIAABF5EABH2ItBsAwEIQAACEIAABJwAIsxpYEMAAhCAAAQgAIEXEUCEvQg020AAAhCAAAQgAAEngAhzGtgQgAAEIAABCEDgRQQQYS8CfaNtev+247lHuOZU5zJhdwhAAAIQuDUBRNitH197+N4/cd3OLt5T5M7izKdMVdjggAAEIAABCOxG4NNFmK52GfNoF3XDfKt9M3uD6Ywy9t13S7fezFt6UgsBCEAAAhC4MgFE2E9/+8dP657QZXVDb7Dqr551KLZXXWeS7WehAwQgAAEIQGCGACKsK8KqLEietKy4I0GfnlCVX/KoKu2Slo/Hwz2pSsvY2jObHuXXTN/I09KhFHK/71U7qyQZ6tDzq60ymx4vT5ksIQABCEAAAicSQIR1RZjLjmTHA4vbvffwXFRJByg51c4vU+ZTg9XaZvnYWc9VadSNkseb1HJRSkZq0ixMOb50O3VmCQEIQAACEHg9AUTYSISFHImnsk436IkmBTBYppB2jwFqdMaTmmiqsd7ytGamtpahEve4rYRkrM5Jhb50O7arnjQGSwhAAAIQgMDLCCDCfhNh/l9CvxhK+b1lvf5d1SXbl9FQ5TK00YwnNVFtU1o95ex19qnc9q3d3pLjuJLty965fAxsCEAAAhCAwMsIIMIWfhI2uLnHuiGi6dOfq8plRDQtk7NGZzypSXOMdU7vHJP4p0e9f7XrKeZzvNZVl0/idu2MBwIQgAAEIPB6AoiwBRE2uLz97k9ProYGHtcNPc2nchnaccYTyTVzcTvt0sscdFZtc19FZzqMc9Rfxjg/bc0SAhCAAAQgcAoBRNiyCIsHk6TSs6Ik6QPvmTr3MiOtRqunN1vNrB4Nlqbq9RzkR2hcqJyZtN60UatP9RzkK+fxeHz9/j/3YEMAAhCAAAReQAARNhJhfou7HQ+mevTAUiiWPVnT8ze7PdVZHZoDp1ae3Aw1nap6KlqPfIQIm+kpEfb19aWzYEAAAhCAAAReQAAR1hVhVVUkTyzTp56Z+3tqIDVUrfLVpBdSpieErVopHvc0t64Jqh1spK1ruUIqb+6rNO/QdCpB0TB6/rRvb3d+GJZ4soQABCAAgRcQ+HQR9gLEgy16mmBQQugIAoiwI6jSEwIQgAAExgQQYWM+x0YRYcfyneuOApvjRBYEIAABCOxMABG2M9D5diiweVYHZYb84rfBDsJLWwhAAAIQGBNAhI35HBIN+eW/bnXINjSFAAQgAAEIQODCBBBhF344jAYBCEAAAhCAwPsSQIS977PlZBCAAAQgAAEIXJgAIuzCD4fRIAABCEAAAhB4XwKIsPd9tpwMAhCAAAQgAIELE0CEXfjhMBoEIAABCEAAAu9LABH2vs+Wk0EAAhCAAAQgcGECiLALPxxGgwAEIAABCEDgfQkgwt732T5/Mv0FZoO/SFY5z7ffVHHWvuOhrznVeGaiEIAABCBwEQKIsIs8iD3HGEioyW0GHc6SHafsO+AQJE+ZavIhkgYBCEAAAhcn8OkiTJeojPkHtnhDz7faN3M82MxJxx2OmFZTXeofEnglh32p0g0CEIAABK5PABH20+pb/7I39HiwOO/41OMO+77Wda/q2XfH+W7XmWR+ZjIhAAEIQOAuBBBhXRFWL+DkScv6yCNBn55QNVDyqCrtkpaPx8M9qUrLurVXeTTsZlTdmlFNUtOU7yFtqmjP41WJkjaV0etW/X7SGk2bapmGrH61VWbTo8J6olTIEgIQgAAE3pUAIqwrwnSvx7OPW9Pfg+pJUS114ybPimXddMZTN6pVykkHd3/Yzdrk9GXYrjZqNO3iCQoNnDPNa3nyeJPBSTXPIKd29uYedTt1ZgkBCEAAAu9NABE2EmEhR+IN8EtUnursvS7prh0sUyjtVaMzHk3lA7uthLRd8g+iaQxful071GhPBU5mKk2GTuEet5WQjNU5qdCXblcaaQCWEIAABCDwxgQQYb+JMP8vPezFUMrvLZtXr5JdD9VMFyU1OuOJjVJmWmoY386dspuFyelLt+skNdobYD6z7lI9zW46Y81PIS17fdIzHeT3OqgEAwIQgAAE3pIAImzhJ2E9QTDwx4sSN2v69HdIV68ML/RM3ysle0glNafZuZfW7KnmvWjq5ku36yQ1OrlFbeVDqkn098/FQvVpzqbouI/XJkHmw8hObVlCAAIQgMDbE0CELYgw3ZF+j8Zr4bdselFqaOBJnWum9IQb2rHmV48PHFF9qo8bvQ7ex/M1mNr6oWo397itnhudgznHWyg602GcoyPIGOenrVlCAAIQgMDbE0CELYuweAlcVchTnb1QuomVFvIllnLWtiqXoZLqkSRSTtPTcw78vQmbM2j3GnWP273+A38tH+yr0OIZlTnoP5hKodhI3eb3/fr9f16IDQEIQAACb0YAETYSYX4Bux0vQfXo5UihWPakVc/f7PZUZ3Xo3f2pm/J7/kio0epRq+bWnu92M1mtUmZvGOWPu9VofRA1x5svDhANa9vmQVLnEGFfX1/JzxICEIAABN6GACKsK8LqTZk8sUyfejPc37vLU0PVKl9NeiFlekLYqu1JAaWp1ktkb49GK/VJM2sjGZ6pZEVTt7RMtc1yz/G27ne7meNO2V7lWye/h3q1j8eDH4ZVbnggAAEIvBOBTxdh5z7LuIDPnWGX3ZsHaTp32e5DmiDCPuRBc0wIQOBjCSDCznz0byNTmgdpOs/Efau9UWC3elwMCwEIQGANAUTYGmq71LyTRqlnCU/9dahd0L13E34b7L2fL6eDAAQgIAKIMKF4nfGWAkWHkvE6oOwEAQhAAAIQuCEBRNgNHxojQwACEIAABCBwfwKIsPs/Q04AAQhAAAIQgMANCSDCbvjQGBkCEIAABCAAgfsTQITd/xlyAghAAAIQgAAEbkgAEXbDh8bIEIAABCAAAQjcnwAi7P7PkBNAAAIQgAAEIHBDAoiwGz602458zb+94ppT3fYhMzgEIAABCMwSQITNkrpRXqiKCw58itxZpHHKVBd8OowEAQhAAAIvJvDpIkwXsIz5B7B4u8+32jdzcTAddjFzcrDU8FJ/Uf5eZ5xEQRoEIAABCEBgkgAi7KfViuGyt/t4sBpdTUAvWbPn9rbqv8Wos23pRi0EIAABCEBgLwKIsK4Iq5d38qRlfSSRoE9PqAIleVSVdknLx+PhnlSlpbb2ZDndUEnK1NITVKhoz+NV6aR+BE9TKyXUXSJnpqqZ487mVD5DjOEeL3c/NgQgAAEIQGCGACKsK8J09wfHuHGdafWkqJa6rZNnxbJuOuOJjWqmBlCCPGnm5jIla6luTWXTc7rfR+3ZzV28STMhDTnI8X3Ty5CWKbO5BU4IQAACEIBAIoAIG4kw/+HHuttduNM9PVimUHSQU0avc9IHShv4Pcdt38vtyHGP2+qwxalaGc22Nao0GatzUqEv3Y6NqkcDYEAAAhCAAASaBBBhv4kw/y9hWgyl/N6yXtKu6pLty2iochnaaMaTmviyljc71zT3uN0sX+H0IVWepGRzX09O+SmkZa+PP4hk+3JyF22HAQEIQAACEHg8HoiwhZ+EDe7X3s0dL1ZE06e/cyqX4YWe6TOkZA+ppObMdFarKNdnr9Z3cXs8xnym76thZHhUOzaN5o4ps5fjflddGiMZqS1LCEAAAhCAwIAAImxBhPktmzj6Db0Yqsny+O0uJdRrqCqvhTMlAAAKlklEQVQlzHgiuWb6djXqHrdrtxr1zhr1KWfdxfvMRLfn6Fwy5nvWafFAAAIQgAAEnAAibFmEBa8klXp6QskpP93iSos+/kh6mdGwRqtnMFtNlkeGhnGP2xpeZxxH1bA3WC1XySDU66ZaGeMm4z7Crm7jfE/DhgAEIAABCAwIIMJGIswvb7cDaPUIdArFUpIlpfX8Ka256bizOsio+RpVhm+k2ZrR1La3lL8nX1Jzz++VKCfVamAlLHYYJ0TD2jbt69thQwACEIAABGYIIMK6IqzesskTy/Qp6O7vXfOpoWqVrya9kDI9IWzV9gRETUieWNZu7p+Jakjv71PVhuk4qdBrU/NUqKV3aDqVoGgYPX/aN9JSLUsIQAACEIDAgMCni7ABmheEbnRz32jUFzw4toAABCAAAQhsJ4AI285wfYcbKZsbjbr+eVAJAQhAAAIQeCEBRNgLYX+/1b1kzb2m/Z40KwhAAAIQgMAVCSDCTngqIWjSLzadMMczWyLCnqFFLgQgAAEIQGCZACJsmREZEIAABCAAAQhAYHcCiLDdkdIQAhCAAAQgAAEILBNAhC0zIgMCEIAABCAAAQjsTuDqImz3A9MQAhCAAAQgAAEIXIEAIuwKT4EZIAABCEAAAhD4OAKIsI975BwYAhCAAAQgAIErEECEXeEpMAMEIAABCEAAAh9H4B4i7M9//+b/fdxT4sAQgAAEIAABCLwdgXuIMGEPKaYlBgQgAAEIQAACELgpAUTYTR8cY0MAAhCAAAQgcG8CiLB7Pz+mhwAEIAABCEDgpgQQYTd9cIwNAQhAAAIQgMC9CSDC7v38mB4CEIAABCAAgZsSQITd9MExNgQgAAEIQAAC9yaACLv382N6CEAAAhCAAARuSgARdtMHx9gQgAAEIAABCNybACLs3s+P6SEAAQhAAAIQuCkBRNhNHxxjQwACEIAABCBwbwKIsHs/P6aHAAQgAAEIQOCmBBBhN31wjA0BCEAAAhCAwL0JIMLu/fyYHgIQgAAEIACBmxJAhN30wTE2BCAAAQhAAAL3JoAIu/fzY3oIQAACEIAABG5K4B4i7M9//+b/3ZQ1Y0MAAhCAAAQgAAERuIcI07gYEIAABCAAAQhA4D0IIMLe4zlyCghAAAIQgAAEbkYAEXazB8a4EIAABCAAAQi8B4F9RNh7sOAUEIAABCAAAQhA4GUEEGEvQ81GEIAABCAAAQhA4A8CiLA/WGBBAAIQgAAEIACBlxFAhL0MNRtBAAIQgAAEIACBPwjsKcL+99//Gf/90f5769vPe273fW9WEIAABCAAAQhA4E4E9ldFAx327ec/ocPu9HYwKwQgAAEIQAAChxF4qQh7PB7osMMeJY0hAAEIQAACELgTgVeLMHTYnd4OZoUABCAAAQhA4DACiLDD0NIYAhCAAAQgAAEI9AmcIML4YVj/cRCBAAQgAAEIQOBTCCDCPuVJc04IQAACEIAABC5FABF2qcfBMBCAAAQgAAEIfAqB/UVYkBv8RRX8ceSnvFycEwIQgAAEIACBPoH9RdhYfsUk/EUV/SdCBAIQgAAEIACBjyCACPuIx8whIQABCEAAAhC4GgFE2NWeCPNAAAIQgAAEIPARBE4QYfxZ5Ee8WRwSAhCAAAQgAIEhAUTYEA9BCEAAAhCAAAQgcAyBV4swfgx2zHOkKwQgAAEIQAACNyPwUhGGArvZ28G4EIAABCAAAQgcRmBPERZ/OcX//vs/e9N++3nP7Xq74IcABCAAAQhAAALXJ4Aquv4zYkIIQAACEIAABN6QACLsDR8qR4IABCAAAQhA4PoEEGHXf0ZMCAEIQAACEIDAGxLYR4T9hf9BAAIQgAAEIAABCDxDABH2DC1yIQABCEAAAhCAwE4E9hRhb/iDQo4EAQhAAAIQgAAEjiGACDuGK10hAAEIQAACEIDAkAAibIhnGPy3H//p/w1zrxL82z9+8v+uMtb3c8SE3/u6Kz/O3/7xUzdvQyD+kuGn/pa7FSUbBqQUAhCAAARuSeAjRNh//+d//fd//tdxzyek2HH9j+j8lNA5YoBBz3WzrasajBGhLf/Mw5baxcFIgAAEIACBuxNAhO3wBC8lwtJPhno/HNpXstRu1TMPel3tuqrFqbYIqS21i4ORAAEIQAACdyeACNvhCV5QhC2eal/JElJPgi8tF4dJCetmW1eVtq7LLUJqS22dBA8EIAABCLwZgZ1FWPzBX/3jv7FH0V754/HwUPqzxUF5qtJy/inO/NZXT4R57b/9mP9JTY/WecbRmi/PpBbppYW/RseepLrSMmbzzpJraWzP8SqlPR6POkkv0/29Ku/ctLcIqS21zWFwQgACEIDAOxHYU4RJDEkzOalBNGkjz4wOydNcujJrJvgwk3ZSV1VIRZ+UJqd2kaJKHl/KfjweqWFvXy+RPak2mmnudDuau8ftEEb6lOFKq+ZPRlPhsyLMy90WrkVji5DaUrs4GAkQgAAEIHB3AruJsKR7ejoseLlg6mUqp3ZOJTUhedJy8pklJTSomslMOWmZmo+jKTktJ6VGTZv0xHYuoaS6kkJSTu3smTXqHre1tTr72Wcya453aNpbhNSW2uYwOCEAAQhA4J0IvFqEhR6SwAqUVSS5x22hd6fbSnBjMcGTZc8roZnMlBPL3o+4xlFN2DRCZ/jnIM1DVaD0PE1/tPKQpJI7taOcMmrItVozKudkZt3LOzTtLUJqS21zGJwQgAAEIPBOBHYWYSF3/DPBauqh6nSP2+rmTreV4MZigifLTrJJ/mo0MyWk3PBa91c1No56n2RP6oyaFp76OdO/qbeaTnXTADJqaFJaRWGvz+KJtG8y9pJQe/VJ47GEAAQgAIG7E9hZhI1xhBiqkmjsqdHFP45MYzQ7pJy6DBlU/dVTM2c86iO9JY8b46hnhl21SM15Stx4uQua5Pdl2BcRYXWwpzxbJNSW2qeGJBkCEIAABO5I4NUiLBi9+I8jk2ibfE5VSPUKa+aMx7vV/PmoZzbVVUqIZdVq1VMLXVd5VP6ms9lZThmqdY/bkVA9PX8vUxvNGFuE1JbamdnIgQAEIACBWxPYTYT95S9/Gf/AyaNuV4WUoosJNb8+kpmcWpW0Uf1DwyhJac3/98aUk1o9Fa1zumdSeTTTmk4196jbofyUJsOVWc3vRSNT0Wahotqrpz5TuedP2luE1JbayfFIgwAEIACB+xLYU4RJLYXicd3jdsByj+e737GmnBpyT9P2Ds2EpjPkURJJkekh2WoiT+it2sETkiaTjFOO2i4aY9khieOG93S/t3I78t3TU0WDzr1QlVM+0jiqzF5zn9lzBvYWIbWldjASIQhAAAIQeA8CO4uwdVB6wmtdN6ogsCOBLUJqS+2OR6AVBCAAAQhckwAi7JrPhamuQmCLkNpSe5XzMwcEIAABCBxGABF2GFoavwWBLUJqS+1bwOMQEIAABCAwIoAIG9EhBoHH4xFa6tvPT3yxrCgBNQQgAAEIfBqBJ+6VAZq/8D8IQAACEIAABCAAgWcIIMKeoUUuBCAAAQhAAAIQ2InAPiJs8EMyQhCAAAQgAAEIQAAClQAirDLBAwEIQAACEIAABA4ngAg7HDEbQAACEIAABCAAgUrg/wPeYdcd/eu2GAAAAABJRU5ErkJggg==;" parent="1" vertex="1">
          <mxGeometry x="10" y="-620" width="617.82" height="420" as="geometry" />
        </mxCell>
        <mxCell id="73Ai4wEuDDb9qYBm-aEW-12" value="&lt;div style=&quot;color: #cccccc;background-color: #1f1f1f;font-family: Consolas, &#39;Courier New&#39;, monospace;font-weight: normal;font-size: 14px;line-height: 19px;white-space: pre;&quot;&gt;&lt;div&gt;&lt;span style=&quot;color: #808080;&quot;&gt;&amp;lt;&lt;/span&gt;&lt;span style=&quot;color: #569cd6;&quot;&gt;form&lt;/span&gt;&lt;span style=&quot;color: #cccccc;&quot;&gt; &lt;/span&gt;&lt;span style=&quot;color: #9cdcfe;&quot;&gt;[formGroup]&lt;/span&gt;&lt;span style=&quot;color: #cccccc;&quot;&gt;=&lt;/span&gt;&lt;span style=&quot;color: #ce9178;&quot;&gt;&quot;frmAssignUser&quot;&lt;/span&gt;&lt;span style=&quot;color: #808080;&quot;&gt;&amp;gt;&lt;/span&gt;&lt;/div&gt;&lt;div&gt;&lt;span style=&quot;color: #cccccc;&quot;&gt;&amp;nbsp; &amp;nbsp; &amp;nbsp; &amp;nbsp; &lt;/span&gt;&lt;span style=&quot;color: #808080;&quot;&gt;&amp;lt;&lt;/span&gt;&lt;span style=&quot;color: #569cd6;&quot;&gt;div&lt;/span&gt;&lt;span style=&quot;color: #cccccc;&quot;&gt; &lt;/span&gt;&lt;span style=&quot;color: #9cdcfe;&quot;&gt;fxLayout&lt;/span&gt;&lt;span style=&quot;color: #cccccc;&quot;&gt;=&lt;/span&gt;&lt;span style=&quot;color: #ce9178;&quot;&gt;&quot;row wrap&quot;&lt;/span&gt;&lt;span style=&quot;color: #808080;&quot;&gt;&amp;gt;&lt;/span&gt;&lt;/div&gt;&lt;div&gt;&lt;span style=&quot;color: #cccccc;&quot;&gt;&amp;nbsp; &amp;nbsp; &amp;nbsp; &amp;nbsp; &amp;nbsp; &amp;nbsp; &lt;/span&gt;&lt;span style=&quot;color: #808080;&quot;&gt;&amp;lt;&lt;/span&gt;&lt;span style=&quot;color: #569cd6;&quot;&gt;mat-form-field&lt;/span&gt;&lt;span style=&quot;color: #cccccc;&quot;&gt; &lt;/span&gt;&lt;span style=&quot;color: #9cdcfe;&quot;&gt;fxFlex&lt;/span&gt;&lt;span style=&quot;color: #cccccc;&quot;&gt;=&lt;/span&gt;&lt;span style=&quot;color: #ce9178;&quot;&gt;&quot;80&quot;&lt;/span&gt;&lt;span style=&quot;color: #808080;&quot;&gt;&amp;gt;&lt;/span&gt;&lt;/div&gt;&lt;div&gt;&lt;span style=&quot;color: #cccccc;&quot;&gt;&amp;nbsp; &amp;nbsp; &amp;nbsp; &amp;nbsp; &amp;nbsp; &amp;nbsp; &amp;nbsp; &amp;nbsp; &lt;/span&gt;&lt;span style=&quot;color: #808080;&quot;&gt;&amp;lt;&lt;/span&gt;&lt;span style=&quot;color: #569cd6;&quot;&gt;mat-label&lt;/span&gt;&lt;span style=&quot;color: #808080;&quot;&gt;&amp;gt;&lt;/span&gt;&lt;span style=&quot;color: #cccccc;&quot;&gt;Role Name&lt;/span&gt;&lt;span style=&quot;color: #808080;&quot;&gt;&amp;lt;/&lt;/span&gt;&lt;span style=&quot;color: #569cd6;&quot;&gt;mat-label&lt;/span&gt;&lt;span style=&quot;color: #808080;&quot;&gt;&amp;gt;&lt;/span&gt;&lt;/div&gt;&lt;div&gt;&lt;span style=&quot;color: #cccccc;&quot;&gt;&amp;nbsp; &amp;nbsp; &amp;nbsp; &amp;nbsp; &amp;nbsp; &amp;nbsp; &amp;nbsp; &amp;nbsp; &lt;/span&gt;&lt;span style=&quot;color: #808080;&quot;&gt;&amp;lt;&lt;/span&gt;&lt;span style=&quot;color: #569cd6;&quot;&gt;input&lt;/span&gt;&lt;span style=&quot;color: #cccccc;&quot;&gt; &lt;/span&gt;&lt;span style=&quot;color: #9cdcfe;&quot;&gt;matInput&lt;/span&gt;&lt;span style=&quot;color: #cccccc;&quot;&gt; &lt;/span&gt;&lt;span style=&quot;color: #9cdcfe;&quot;&gt;formControlName&lt;/span&gt;&lt;span style=&quot;color: #cccccc;&quot;&gt;=&lt;/span&gt;&lt;span style=&quot;color: #ce9178;&quot;&gt;&quot;roleCtrl&quot;&lt;/span&gt;&lt;span style=&quot;color: #cccccc;&quot;&gt; &lt;/span&gt;&lt;span style=&quot;color: #9cdcfe;&quot;&gt;required&lt;/span&gt;&lt;span style=&quot;color: #808080;&quot;&gt;&amp;gt;&lt;/span&gt;&lt;/div&gt;&lt;div&gt;&lt;span style=&quot;color: #cccccc;&quot;&gt;&amp;nbsp; &amp;nbsp; &amp;nbsp; &amp;nbsp; &amp;nbsp; &amp;nbsp; &lt;/span&gt;&lt;span style=&quot;color: #808080;&quot;&gt;&amp;lt;/&lt;/span&gt;&lt;span style=&quot;color: #569cd6;&quot;&gt;mat-form-field&lt;/span&gt;&lt;span style=&quot;color: #808080;&quot;&gt;&amp;gt;&lt;/span&gt;&lt;/div&gt;&lt;div&gt;&lt;span style=&quot;color: #cccccc;&quot;&gt;&amp;nbsp; &amp;nbsp; &amp;nbsp; &amp;nbsp; &amp;nbsp; &amp;nbsp; &lt;/span&gt;&lt;span style=&quot;color: #808080;&quot;&gt;&amp;lt;&lt;/span&gt;&lt;span style=&quot;color: #569cd6;&quot;&gt;div&lt;/span&gt;&lt;span style=&quot;color: #cccccc;&quot;&gt; &lt;/span&gt;&lt;span style=&quot;color: #9cdcfe;&quot;&gt;fxFlex&lt;/span&gt;&lt;span style=&quot;color: #cccccc;&quot;&gt;=&lt;/span&gt;&lt;span style=&quot;color: #ce9178;&quot;&gt;&quot;40&quot;&lt;/span&gt;&lt;span style=&quot;color: #808080;&quot;&gt;&amp;gt;&amp;lt;/&lt;/span&gt;&lt;span style=&quot;color: #569cd6;&quot;&gt;div&lt;/span&gt;&lt;span style=&quot;color: #808080;&quot;&gt;&amp;gt;&lt;/span&gt;&lt;/div&gt;&lt;div&gt;&lt;span style=&quot;color: #cccccc;&quot;&gt;&amp;nbsp; &amp;nbsp; &amp;nbsp; &amp;nbsp; &amp;nbsp; &amp;nbsp; &lt;/span&gt;&lt;span style=&quot;color: #808080;&quot;&gt;&amp;lt;&lt;/span&gt;&lt;span style=&quot;color: #569cd6;&quot;&gt;mat-form-field&lt;/span&gt;&lt;span style=&quot;color: #cccccc;&quot;&gt; &lt;/span&gt;&lt;span style=&quot;color: #9cdcfe;&quot;&gt;fxFlex&lt;/span&gt;&lt;span style=&quot;color: #cccccc;&quot;&gt;=&lt;/span&gt;&lt;span style=&quot;color: #ce9178;&quot;&gt;&quot;80&quot;&lt;/span&gt;&lt;span style=&quot;color: #808080;&quot;&gt;&amp;gt;&lt;/span&gt;&lt;/div&gt;&lt;div&gt;&lt;span style=&quot;color: #cccccc;&quot;&gt;&amp;nbsp; &amp;nbsp; &amp;nbsp; &amp;nbsp; &amp;nbsp; &amp;nbsp; &amp;nbsp; &amp;nbsp; &lt;/span&gt;&lt;span style=&quot;color: #808080;&quot;&gt;&amp;lt;&lt;/span&gt;&lt;span style=&quot;color: #569cd6;&quot;&gt;mat-label&lt;/span&gt;&lt;span style=&quot;color: #808080;&quot;&gt;&amp;gt;&lt;/span&gt;&lt;span style=&quot;color: #cccccc;&quot;&gt;Description&lt;/span&gt;&lt;span style=&quot;color: #808080;&quot;&gt;&amp;lt;/&lt;/span&gt;&lt;span style=&quot;color: #569cd6;&quot;&gt;mat-label&lt;/span&gt;&lt;span style=&quot;color: #808080;&quot;&gt;&amp;gt;&lt;/span&gt;&lt;/div&gt;&lt;div&gt;&lt;span style=&quot;color: #cccccc;&quot;&gt;&amp;nbsp; &amp;nbsp; &amp;nbsp; &amp;nbsp; &amp;nbsp; &amp;nbsp; &amp;nbsp; &amp;nbsp; &lt;/span&gt;&lt;span style=&quot;color: #808080;&quot;&gt;&amp;lt;&lt;/span&gt;&lt;span style=&quot;color: #569cd6;&quot;&gt;input&lt;/span&gt;&lt;span style=&quot;color: #cccccc;&quot;&gt; &lt;/span&gt;&lt;span style=&quot;color: #9cdcfe;&quot;&gt;matInput&lt;/span&gt;&lt;span style=&quot;color: #cccccc;&quot;&gt; &lt;/span&gt;&lt;span style=&quot;color: #9cdcfe;&quot;&gt;formControlName&lt;/span&gt;&lt;span style=&quot;color: #cccccc;&quot;&gt;=&lt;/span&gt;&lt;span style=&quot;color: #ce9178;&quot;&gt;&quot;descCtrl&quot;&lt;/span&gt;&lt;span style=&quot;color: #808080;&quot;&gt;&amp;gt;&lt;/span&gt;&lt;/div&gt;&lt;div&gt;&lt;span style=&quot;color: #cccccc;&quot;&gt;&amp;nbsp; &amp;nbsp; &amp;nbsp; &amp;nbsp; &amp;nbsp; &amp;nbsp; &lt;/span&gt;&lt;span style=&quot;color: #808080;&quot;&gt;&amp;lt;/&lt;/span&gt;&lt;span style=&quot;color: #569cd6;&quot;&gt;mat-form-field&lt;/span&gt;&lt;span style=&quot;color: #808080;&quot;&gt;&amp;gt;&lt;/span&gt;&lt;/div&gt;&lt;br&gt;&lt;div&gt;&lt;span style=&quot;color: #cccccc;&quot;&gt;&amp;nbsp; &amp;nbsp; &amp;nbsp; &amp;nbsp; &amp;nbsp; &amp;nbsp; &lt;/span&gt;&lt;span style=&quot;color: #808080;&quot;&gt;&amp;lt;&lt;/span&gt;&lt;span style=&quot;color: #569cd6;&quot;&gt;div&lt;/span&gt;&lt;span style=&quot;color: #cccccc;&quot;&gt; &lt;/span&gt;&lt;span style=&quot;color: #9cdcfe;&quot;&gt;fxLayout&lt;/span&gt;&lt;span style=&quot;color: #cccccc;&quot;&gt;=&lt;/span&gt;&lt;span style=&quot;color: #ce9178;&quot;&gt;&quot;row&quot;&lt;/span&gt;&lt;span style=&quot;color: #cccccc;&quot;&gt; &lt;/span&gt;&lt;span style=&quot;color: #9cdcfe;&quot;&gt;fxFlex&lt;/span&gt;&lt;span style=&quot;color: #cccccc;&quot;&gt;=&lt;/span&gt;&lt;span style=&quot;color: #ce9178;&quot;&gt;&quot;20&quot;&lt;/span&gt;&lt;span style=&quot;color: #cccccc;&quot;&gt; &lt;/span&gt;&lt;span style=&quot;color: #9cdcfe;&quot;&gt;fxLayoutAlign&lt;/span&gt;&lt;span style=&quot;color: #cccccc;&quot;&gt;=&lt;/span&gt;&lt;span style=&quot;color: #ce9178;&quot;&gt;&quot;end&quot;&lt;/span&gt;&lt;span style=&quot;color: #808080;&quot;&gt;&amp;gt;&lt;/span&gt;&lt;/div&gt;&lt;div&gt;&lt;span style=&quot;color: #cccccc;&quot;&gt;&amp;nbsp; &amp;nbsp; &amp;nbsp; &amp;nbsp; &amp;nbsp; &amp;nbsp; &amp;nbsp; &amp;nbsp; &lt;/span&gt;&lt;span style=&quot;color: #808080;&quot;&gt;&amp;lt;&lt;/span&gt;&lt;span style=&quot;color: #569cd6;&quot;&gt;div&lt;/span&gt;&lt;span style=&quot;color: #cccccc;&quot;&gt; &lt;/span&gt;&lt;span style=&quot;color: #9cdcfe;&quot;&gt;class&lt;/span&gt;&lt;span style=&quot;color: #cccccc;&quot;&gt;=&lt;/span&gt;&lt;span style=&quot;color: #ce9178;&quot;&gt;&quot;btn-action&quot;&lt;/span&gt;&lt;span style=&quot;color: #808080;&quot;&gt;&amp;gt;&lt;/span&gt;&lt;/div&gt;&lt;div&gt;&lt;span style=&quot;color: #cccccc;&quot;&gt;&amp;nbsp; &amp;nbsp; &amp;nbsp; &amp;nbsp; &amp;nbsp; &amp;nbsp; &amp;nbsp; &amp;nbsp; &amp;nbsp; &amp;nbsp; &lt;/span&gt;&lt;span style=&quot;color: #808080;&quot;&gt;&amp;lt;&lt;/span&gt;&lt;span style=&quot;color: #569cd6;&quot;&gt;button&lt;/span&gt;&lt;span style=&quot;color: #cccccc;&quot;&gt; &lt;/span&gt;&lt;span style=&quot;color: #9cdcfe;&quot;&gt;mat-flat-button&lt;/span&gt;&lt;span style=&quot;color: #cccccc;&quot;&gt; &lt;/span&gt;&lt;span style=&quot;color: #9cdcfe;&quot;&gt;color&lt;/span&gt;&lt;span style=&quot;color: #cccccc;&quot;&gt;=&lt;/span&gt;&lt;span style=&quot;color: #ce9178;&quot;&gt;&quot;accent&quot;&lt;/span&gt;&lt;span style=&quot;color: #cccccc;&quot;&gt; &lt;/span&gt;&lt;span style=&quot;color: #9cdcfe;&quot;&gt;class&lt;/span&gt;&lt;span style=&quot;color: #cccccc;&quot;&gt;=&lt;/span&gt;&lt;span style=&quot;color: #ce9178;&quot;&gt;&quot;save-button&quot;&lt;/span&gt;&lt;/div&gt;&lt;div&gt;&lt;span style=&quot;color: #cccccc;&quot;&gt;&amp;nbsp; &amp;nbsp; &amp;nbsp; &amp;nbsp; &amp;nbsp; &amp;nbsp; &amp;nbsp; &amp;nbsp; &amp;nbsp; &amp;nbsp; &amp;nbsp; &amp;nbsp; &lt;/span&gt;&lt;span style=&quot;color: #9cdcfe;&quot;&gt;(click)&lt;/span&gt;&lt;span style=&quot;color: #cccccc;&quot;&gt;=&lt;/span&gt;&lt;span style=&quot;color: #ce9178;&quot;&gt;&quot;save($event);&quot;&lt;/span&gt;&lt;span style=&quot;color: #808080;&quot;&gt;&amp;gt;&lt;/span&gt;&lt;span style=&quot;color: #cccccc;&quot;&gt;Save&lt;/span&gt;&lt;span style=&quot;color: #808080;&quot;&gt;&amp;lt;/&lt;/span&gt;&lt;span style=&quot;color: #569cd6;&quot;&gt;button&lt;/span&gt;&lt;span style=&quot;color: #808080;&quot;&gt;&amp;gt;&lt;/span&gt;&lt;/div&gt;&lt;div&gt;&lt;span style=&quot;color: #cccccc;&quot;&gt;&amp;nbsp; &amp;nbsp; &amp;nbsp; &amp;nbsp; &amp;nbsp; &amp;nbsp; &amp;nbsp; &amp;nbsp; &lt;/span&gt;&lt;span style=&quot;color: #808080;&quot;&gt;&amp;lt;/&lt;/span&gt;&lt;span style=&quot;color: #569cd6;&quot;&gt;div&lt;/span&gt;&lt;span style=&quot;color: #808080;&quot;&gt;&amp;gt;&lt;/span&gt;&lt;/div&gt;&lt;div&gt;&lt;span style=&quot;color: #cccccc;&quot;&gt;&amp;nbsp; &amp;nbsp; &amp;nbsp; &amp;nbsp; &amp;nbsp; &amp;nbsp; &lt;/span&gt;&lt;span style=&quot;color: #808080;&quot;&gt;&amp;lt;/&lt;/span&gt;&lt;span style=&quot;color: #569cd6;&quot;&gt;div&lt;/span&gt;&lt;span style=&quot;color: #808080;&quot;&gt;&amp;gt;&lt;/span&gt;&lt;/div&gt;&lt;div&gt;&lt;span style=&quot;color: #cccccc;&quot;&gt;&amp;nbsp; &amp;nbsp; &amp;nbsp; &amp;nbsp; &lt;/span&gt;&lt;span style=&quot;color: #808080;&quot;&gt;&amp;lt;/&lt;/span&gt;&lt;span style=&quot;color: #569cd6;&quot;&gt;div&lt;/span&gt;&lt;span style=&quot;color: #808080;&quot;&gt;&amp;gt;&lt;/span&gt;&lt;/div&gt;&lt;/div&gt;" style="text;whiteSpace=wrap;html=1;" parent="1" vertex="1">
          <mxGeometry x="10" y="-190" width="560" height="380" as="geometry" />
        </mxCell>
        <mxCell id="73Ai4wEuDDb9qYBm-aEW-13" value="&lt;div style=&quot;color: #cccccc;background-color: #1f1f1f;font-family: Consolas, &#39;Courier New&#39;, monospace;font-weight: normal;font-size: 14px;line-height: 19px;white-space: pre;&quot;&gt;&lt;div&gt;&lt;span style=&quot;color: #9cdcfe;&quot;&gt;fxLayout&lt;/span&gt;&lt;span style=&quot;color: #cccccc;&quot;&gt; &lt;/span&gt;&lt;span style=&quot;color: #d4d4d4;&quot;&gt;=&lt;/span&gt;&lt;span style=&quot;color: #cccccc;&quot;&gt; &lt;/span&gt;&lt;span style=&quot;color: #ce9178;&quot;&gt;&quot;row&quot;&lt;/span&gt;&lt;span style=&quot;color: #cccccc;&quot;&gt; &lt;/span&gt;&lt;span style=&quot;color: #6a9955;&quot;&gt;// accept values in [&quot;column&quot;, &quot;row wrap&quot;, &quot;column wrap&quot;, &quot;row-reverse&quot;,...]&lt;/span&gt;&lt;/div&gt;&lt;div&gt;&lt;span style=&quot;color: #9cdcfe;&quot;&gt;fxLayout&lt;/span&gt;&lt;span style=&quot;color: #cccccc;&quot;&gt;.&lt;/span&gt;&lt;span style=&quot;color: #9cdcfe;&quot;&gt;xs&lt;/span&gt;&lt;span style=&quot;color: #cccccc;&quot;&gt;, &lt;/span&gt;&lt;span style=&quot;color: #9cdcfe;&quot;&gt;fxLayout&lt;/span&gt;&lt;span style=&quot;color: #cccccc;&quot;&gt;.&lt;/span&gt;&lt;span style=&quot;color: #9cdcfe;&quot;&gt;sm&lt;/span&gt;&lt;span style=&quot;color: #cccccc;&quot;&gt;, &lt;/span&gt;&lt;span style=&quot;color: #9cdcfe;&quot;&gt;fxLayout&lt;/span&gt;&lt;span style=&quot;color: #cccccc;&quot;&gt;.&lt;/span&gt;&lt;span style=&quot;color: #9cdcfe;&quot;&gt;md&lt;/span&gt;&lt;span style=&quot;color: #cccccc;&quot;&gt;, &lt;/span&gt;&lt;span style=&quot;color: #9cdcfe;&quot;&gt;fxLayout&lt;/span&gt;&lt;span style=&quot;color: #cccccc;&quot;&gt;.&lt;/span&gt;&lt;span style=&quot;color: #9cdcfe;&quot;&gt;lg&lt;/span&gt;&lt;span style=&quot;color: #cccccc;&quot;&gt;, &lt;/span&gt;&lt;span style=&quot;color: #9cdcfe;&quot;&gt;fxLayout&lt;/span&gt;&lt;span style=&quot;color: #cccccc;&quot;&gt;.&lt;/span&gt;&lt;span style=&quot;color: #9cdcfe;&quot;&gt;xl&lt;/span&gt;&lt;/div&gt;&lt;div&gt;&lt;span style=&quot;color: #9cdcfe;&quot;&gt;fxLayout&lt;/span&gt;&lt;span style=&quot;color: #cccccc;&quot;&gt;.&lt;/span&gt;&lt;span style=&quot;color: #9cdcfe;&quot;&gt;lt&lt;/span&gt;&lt;span style=&quot;color: #d4d4d4;&quot;&gt;-&lt;/span&gt;&lt;span style=&quot;color: #9cdcfe;&quot;&gt;sm&lt;/span&gt;&lt;span style=&quot;color: #cccccc;&quot;&gt;, &lt;/span&gt;&lt;span style=&quot;color: #9cdcfe;&quot;&gt;fxLayout&lt;/span&gt;&lt;span style=&quot;color: #cccccc;&quot;&gt;.&lt;/span&gt;&lt;span style=&quot;color: #9cdcfe;&quot;&gt;lt&lt;/span&gt;&lt;span style=&quot;color: #d4d4d4;&quot;&gt;-&lt;/span&gt;&lt;span style=&quot;color: #9cdcfe;&quot;&gt;md&lt;/span&gt;&lt;span style=&quot;color: #cccccc;&quot;&gt;, &lt;/span&gt;&lt;span style=&quot;color: #9cdcfe;&quot;&gt;fxLayout&lt;/span&gt;&lt;span style=&quot;color: #cccccc;&quot;&gt;.&lt;/span&gt;&lt;span style=&quot;color: #9cdcfe;&quot;&gt;lt&lt;/span&gt;&lt;span style=&quot;color: #d4d4d4;&quot;&gt;-&lt;/span&gt;&lt;span style=&quot;color: #9cdcfe;&quot;&gt;lg&lt;/span&gt;&lt;span style=&quot;color: #cccccc;&quot;&gt;, &lt;/span&gt;&lt;span style=&quot;color: #9cdcfe;&quot;&gt;fxLayout&lt;/span&gt;&lt;span style=&quot;color: #cccccc;&quot;&gt;.&lt;/span&gt;&lt;span style=&quot;color: #9cdcfe;&quot;&gt;lt&lt;/span&gt;&lt;span style=&quot;color: #d4d4d4;&quot;&gt;-&lt;/span&gt;&lt;span style=&quot;color: #9cdcfe;&quot;&gt;xl&lt;/span&gt;&lt;/div&gt;&lt;div&gt;&lt;span style=&quot;color: #9cdcfe;&quot;&gt;fxLayout&lt;/span&gt;&lt;span style=&quot;color: #cccccc;&quot;&gt;.&lt;/span&gt;&lt;span style=&quot;color: #9cdcfe;&quot;&gt;gt&lt;/span&gt;&lt;span style=&quot;color: #d4d4d4;&quot;&gt;-&lt;/span&gt;&lt;span style=&quot;color: #9cdcfe;&quot;&gt;xs&lt;/span&gt;&lt;span style=&quot;color: #cccccc;&quot;&gt; , &lt;/span&gt;&lt;span style=&quot;color: #9cdcfe;&quot;&gt;fxLayout&lt;/span&gt;&lt;span style=&quot;color: #cccccc;&quot;&gt;.&lt;/span&gt;&lt;span style=&quot;color: #9cdcfe;&quot;&gt;gt&lt;/span&gt;&lt;span style=&quot;color: #d4d4d4;&quot;&gt;-&lt;/span&gt;&lt;span style=&quot;color: #9cdcfe;&quot;&gt;sm&lt;/span&gt;&lt;span style=&quot;color: #cccccc;&quot;&gt;, &lt;/span&gt;&lt;span style=&quot;color: #9cdcfe;&quot;&gt;fxLayout&lt;/span&gt;&lt;span style=&quot;color: #cccccc;&quot;&gt;.&lt;/span&gt;&lt;span style=&quot;color: #9cdcfe;&quot;&gt;gt&lt;/span&gt;&lt;span style=&quot;color: #d4d4d4;&quot;&gt;-&lt;/span&gt;&lt;span style=&quot;color: #9cdcfe;&quot;&gt;md&lt;/span&gt;&lt;span style=&quot;color: #cccccc;&quot;&gt;, &lt;/span&gt;&lt;span style=&quot;color: #9cdcfe;&quot;&gt;fxLayout&lt;/span&gt;&lt;span style=&quot;color: #cccccc;&quot;&gt;.&lt;/span&gt;&lt;span style=&quot;color: #9cdcfe;&quot;&gt;gt&lt;/span&gt;&lt;span style=&quot;color: #d4d4d4;&quot;&gt;-&lt;/span&gt;&lt;span style=&quot;color: #9cdcfe;&quot;&gt;lg&lt;/span&gt;&lt;span style=&quot;color: #cccccc;&quot;&gt;, &lt;/span&gt;&lt;span style=&quot;color: #9cdcfe;&quot;&gt;fxLayout&lt;/span&gt;&lt;span style=&quot;color: #cccccc;&quot;&gt;.&lt;/span&gt;&lt;span style=&quot;color: #9cdcfe;&quot;&gt;gt&lt;/span&gt;&lt;span style=&quot;color: #d4d4d4;&quot;&gt;-&lt;/span&gt;&lt;span style=&quot;color: #9cdcfe;&quot;&gt;xl&lt;/span&gt;&lt;/div&gt;&lt;div&gt;&lt;span style=&quot;color: #6a9955;&quot;&gt;//classes: fx-layout-row, fx-layout-column, fx-layout-row-wrap, fx-layout-column-wrap&lt;/span&gt;&lt;/div&gt;&lt;div&gt;&lt;span style=&quot;color: #6a9955;&quot;&gt;//fx-layout-xs-row, fx-layout-xs-column, fx-layout-xs-row-wrap, fx-layout-xs-column-wrap....&lt;/span&gt;&lt;/div&gt;&lt;br&gt;&lt;div&gt;&lt;span style=&quot;color: #9cdcfe;&quot;&gt;fxLayoutAlign&lt;/span&gt;&lt;span style=&quot;color: #cccccc;&quot;&gt; &lt;/span&gt;&lt;span style=&quot;color: #d4d4d4;&quot;&gt;=&lt;/span&gt;&lt;span style=&quot;color: #cccccc;&quot;&gt; &lt;/span&gt;&lt;span style=&quot;color: #ce9178;&quot;&gt;&quot;start center&quot;&lt;/span&gt;&lt;span style=&quot;color: #cccccc;&quot;&gt; &lt;/span&gt;&lt;span style=&quot;color: #6a9955;&quot;&gt;// accept values in [&quot;start&quot;, &quot;center&quot;, &quot;end&quot;, &quot;around&quot;, &quot;between&quot;, &quot;evenly&quot;, &quot;stretch&quot;, &quot;baseline&quot;]&lt;/span&gt;&lt;/div&gt;&lt;div&gt;&lt;span style=&quot;color: #9cdcfe;&quot;&gt;fxLayoutAlign&lt;/span&gt;&lt;span style=&quot;color: #cccccc;&quot;&gt;.&lt;/span&gt;&lt;span style=&quot;color: #9cdcfe;&quot;&gt;xs&lt;/span&gt;&lt;span style=&quot;color: #cccccc;&quot;&gt;, &lt;/span&gt;&lt;span style=&quot;color: #9cdcfe;&quot;&gt;fxLayoutAlign&lt;/span&gt;&lt;span style=&quot;color: #cccccc;&quot;&gt;.&lt;/span&gt;&lt;span style=&quot;color: #9cdcfe;&quot;&gt;sm&lt;/span&gt;&lt;span style=&quot;color: #cccccc;&quot;&gt;, &lt;/span&gt;&lt;span style=&quot;color: #9cdcfe;&quot;&gt;fxLayoutAlign&lt;/span&gt;&lt;span style=&quot;color: #cccccc;&quot;&gt;.&lt;/span&gt;&lt;span style=&quot;color: #9cdcfe;&quot;&gt;md&lt;/span&gt;&lt;span style=&quot;color: #cccccc;&quot;&gt;, &lt;/span&gt;&lt;span style=&quot;color: #9cdcfe;&quot;&gt;fxLayoutAlign&lt;/span&gt;&lt;span style=&quot;color: #cccccc;&quot;&gt;.&lt;/span&gt;&lt;span style=&quot;color: #9cdcfe;&quot;&gt;lg&lt;/span&gt;&lt;span style=&quot;color: #cccccc;&quot;&gt;, &lt;/span&gt;&lt;span style=&quot;color: #9cdcfe;&quot;&gt;fxLayoutAlign&lt;/span&gt;&lt;span style=&quot;color: #cccccc;&quot;&gt;.&lt;/span&gt;&lt;span style=&quot;color: #9cdcfe;&quot;&gt;xl&lt;/span&gt;&lt;/div&gt;&lt;div&gt;&lt;span style=&quot;color: #9cdcfe;&quot;&gt;fxLayoutAlign&lt;/span&gt;&lt;span style=&quot;color: #cccccc;&quot;&gt;.&lt;/span&gt;&lt;span style=&quot;color: #9cdcfe;&quot;&gt;lt&lt;/span&gt;&lt;span style=&quot;color: #d4d4d4;&quot;&gt;-&lt;/span&gt;&lt;span style=&quot;color: #9cdcfe;&quot;&gt;sm&lt;/span&gt;&lt;span style=&quot;color: #cccccc;&quot;&gt;, &lt;/span&gt;&lt;span style=&quot;color: #9cdcfe;&quot;&gt;fxLayoutAlign&lt;/span&gt;&lt;span style=&quot;color: #cccccc;&quot;&gt;.&lt;/span&gt;&lt;span style=&quot;color: #9cdcfe;&quot;&gt;lt&lt;/span&gt;&lt;span style=&quot;color: #d4d4d4;&quot;&gt;-&lt;/span&gt;&lt;span style=&quot;color: #9cdcfe;&quot;&gt;md&lt;/span&gt;&lt;span style=&quot;color: #cccccc;&quot;&gt;, &lt;/span&gt;&lt;span style=&quot;color: #9cdcfe;&quot;&gt;fxLayoutAlign&lt;/span&gt;&lt;span style=&quot;color: #cccccc;&quot;&gt;.&lt;/span&gt;&lt;span style=&quot;color: #9cdcfe;&quot;&gt;lt&lt;/span&gt;&lt;span style=&quot;color: #d4d4d4;&quot;&gt;-&lt;/span&gt;&lt;span style=&quot;color: #9cdcfe;&quot;&gt;lg&lt;/span&gt;&lt;span style=&quot;color: #cccccc;&quot;&gt;, &lt;/span&gt;&lt;span style=&quot;color: #9cdcfe;&quot;&gt;fxLayoutAlign&lt;/span&gt;&lt;span style=&quot;color: #cccccc;&quot;&gt;.&lt;/span&gt;&lt;span style=&quot;color: #9cdcfe;&quot;&gt;lt&lt;/span&gt;&lt;span style=&quot;color: #d4d4d4;&quot;&gt;-&lt;/span&gt;&lt;span style=&quot;color: #9cdcfe;&quot;&gt;xl&lt;/span&gt;&lt;/div&gt;&lt;div&gt;&lt;span style=&quot;color: #9cdcfe;&quot;&gt;fxLayoutAlign&lt;/span&gt;&lt;span style=&quot;color: #cccccc;&quot;&gt;.&lt;/span&gt;&lt;span style=&quot;color: #9cdcfe;&quot;&gt;gt&lt;/span&gt;&lt;span style=&quot;color: #d4d4d4;&quot;&gt;-&lt;/span&gt;&lt;span style=&quot;color: #9cdcfe;&quot;&gt;xs&lt;/span&gt;&lt;span style=&quot;color: #cccccc;&quot;&gt; , &lt;/span&gt;&lt;span style=&quot;color: #9cdcfe;&quot;&gt;fxLayoutAlign&lt;/span&gt;&lt;span style=&quot;color: #cccccc;&quot;&gt;.&lt;/span&gt;&lt;span style=&quot;color: #9cdcfe;&quot;&gt;gt&lt;/span&gt;&lt;span style=&quot;color: #d4d4d4;&quot;&gt;-&lt;/span&gt;&lt;span style=&quot;color: #9cdcfe;&quot;&gt;sm&lt;/span&gt;&lt;span style=&quot;color: #cccccc;&quot;&gt;, &lt;/span&gt;&lt;span style=&quot;color: #9cdcfe;&quot;&gt;fxLayoutAlign&lt;/span&gt;&lt;span style=&quot;color: #cccccc;&quot;&gt;.&lt;/span&gt;&lt;span style=&quot;color: #9cdcfe;&quot;&gt;gt&lt;/span&gt;&lt;span style=&quot;color: #d4d4d4;&quot;&gt;-&lt;/span&gt;&lt;span style=&quot;color: #9cdcfe;&quot;&gt;md&lt;/span&gt;&lt;span style=&quot;color: #cccccc;&quot;&gt;, &lt;/span&gt;&lt;span style=&quot;color: #9cdcfe;&quot;&gt;fxLayoutAlign&lt;/span&gt;&lt;span style=&quot;color: #cccccc;&quot;&gt;.&lt;/span&gt;&lt;span style=&quot;color: #9cdcfe;&quot;&gt;gt&lt;/span&gt;&lt;span style=&quot;color: #d4d4d4;&quot;&gt;-&lt;/span&gt;&lt;span style=&quot;color: #9cdcfe;&quot;&gt;lg&lt;/span&gt;&lt;span style=&quot;color: #cccccc;&quot;&gt;, &lt;/span&gt;&lt;span style=&quot;color: #9cdcfe;&quot;&gt;fxLayoutAlign&lt;/span&gt;&lt;span style=&quot;color: #cccccc;&quot;&gt;.&lt;/span&gt;&lt;span style=&quot;color: #9cdcfe;&quot;&gt;gt&lt;/span&gt;&lt;span style=&quot;color: #d4d4d4;&quot;&gt;-&lt;/span&gt;&lt;span style=&quot;color: #9cdcfe;&quot;&gt;xl&lt;/span&gt;&lt;/div&gt;&lt;div&gt;&lt;span style=&quot;color: #6a9955;&quot;&gt;//classes: fx-justify-start, fx-justify-center, fx-justify-end, fx-justify-around, fx-justify-between, fx-justify-evenly&lt;/span&gt;&lt;/div&gt;&lt;div&gt;&lt;span style=&quot;color: #6a9955;&quot;&gt;//fx-align-start, fx-align-center, fx-align-end, fx-align-stretch, fx-align-baseline&lt;/span&gt;&lt;/div&gt;&lt;div&gt;&lt;span style=&quot;color: #6a9955;&quot;&gt;//fx-xs-justify-start, fx-xs-justify-center,....&lt;/span&gt;&lt;/div&gt;&lt;br&gt;&lt;div&gt;&lt;span style=&quot;color: #9cdcfe;&quot;&gt;fxFlex&lt;/span&gt;&lt;span style=&quot;color: #cccccc;&quot;&gt; &lt;/span&gt;&lt;span style=&quot;color: #d4d4d4;&quot;&gt;=&lt;/span&gt;&lt;span style=&quot;color: #cccccc;&quot;&gt; &lt;/span&gt;&lt;span style=&quot;color: #ce9178;&quot;&gt;&quot;10&quot;&lt;/span&gt;&lt;span style=&quot;color: #cccccc;&quot;&gt; &lt;/span&gt;&lt;span style=&quot;color: #6a9955;&quot;&gt;// accept values in range [0,100] and &quot;none&quot;, &quot;auto&quot;.&lt;/span&gt;&lt;/div&gt;&lt;div&gt;&lt;span style=&quot;color: #9cdcfe;&quot;&gt;fxFlex&lt;/span&gt;&lt;span style=&quot;color: #cccccc;&quot;&gt;.&lt;/span&gt;&lt;span style=&quot;color: #9cdcfe;&quot;&gt;xs&lt;/span&gt;&lt;span style=&quot;color: #cccccc;&quot;&gt;, &lt;/span&gt;&lt;span style=&quot;color: #9cdcfe;&quot;&gt;fxFlex&lt;/span&gt;&lt;span style=&quot;color: #cccccc;&quot;&gt;.&lt;/span&gt;&lt;span style=&quot;color: #9cdcfe;&quot;&gt;sm&lt;/span&gt;&lt;span style=&quot;color: #cccccc;&quot;&gt;, &lt;/span&gt;&lt;span style=&quot;color: #9cdcfe;&quot;&gt;fxFlex&lt;/span&gt;&lt;span style=&quot;color: #cccccc;&quot;&gt;.&lt;/span&gt;&lt;span style=&quot;color: #9cdcfe;&quot;&gt;md&lt;/span&gt;&lt;span style=&quot;color: #cccccc;&quot;&gt;, &lt;/span&gt;&lt;span style=&quot;color: #9cdcfe;&quot;&gt;fxFlex&lt;/span&gt;&lt;span style=&quot;color: #cccccc;&quot;&gt;.&lt;/span&gt;&lt;span style=&quot;color: #9cdcfe;&quot;&gt;lg&lt;/span&gt;&lt;span style=&quot;color: #cccccc;&quot;&gt;, &lt;/span&gt;&lt;span style=&quot;color: #9cdcfe;&quot;&gt;fxFlex&lt;/span&gt;&lt;span style=&quot;color: #cccccc;&quot;&gt;.&lt;/span&gt;&lt;span style=&quot;color: #9cdcfe;&quot;&gt;xl&lt;/span&gt;&lt;/div&gt;&lt;div&gt;&lt;span style=&quot;color: #9cdcfe;&quot;&gt;fxFlex&lt;/span&gt;&lt;span style=&quot;color: #cccccc;&quot;&gt;.&lt;/span&gt;&lt;span style=&quot;color: #9cdcfe;&quot;&gt;lt&lt;/span&gt;&lt;span style=&quot;color: #d4d4d4;&quot;&gt;-&lt;/span&gt;&lt;span style=&quot;color: #9cdcfe;&quot;&gt;sm&lt;/span&gt;&lt;span style=&quot;color: #cccccc;&quot;&gt;, &lt;/span&gt;&lt;span style=&quot;color: #9cdcfe;&quot;&gt;fxFlex&lt;/span&gt;&lt;span style=&quot;color: #cccccc;&quot;&gt;.&lt;/span&gt;&lt;span style=&quot;color: #9cdcfe;&quot;&gt;lt&lt;/span&gt;&lt;span style=&quot;color: #d4d4d4;&quot;&gt;-&lt;/span&gt;&lt;span style=&quot;color: #9cdcfe;&quot;&gt;md&lt;/span&gt;&lt;span style=&quot;color: #cccccc;&quot;&gt;, &lt;/span&gt;&lt;span style=&quot;color: #9cdcfe;&quot;&gt;fxFlex&lt;/span&gt;&lt;span style=&quot;color: #cccccc;&quot;&gt;.&lt;/span&gt;&lt;span style=&quot;color: #9cdcfe;&quot;&gt;lt&lt;/span&gt;&lt;span style=&quot;color: #d4d4d4;&quot;&gt;-&lt;/span&gt;&lt;span style=&quot;color: #9cdcfe;&quot;&gt;lg&lt;/span&gt;&lt;span style=&quot;color: #cccccc;&quot;&gt;, &lt;/span&gt;&lt;span style=&quot;color: #9cdcfe;&quot;&gt;fxFlex&lt;/span&gt;&lt;span style=&quot;color: #cccccc;&quot;&gt;.&lt;/span&gt;&lt;span style=&quot;color: #9cdcfe;&quot;&gt;lt&lt;/span&gt;&lt;span style=&quot;color: #d4d4d4;&quot;&gt;-&lt;/span&gt;&lt;span style=&quot;color: #9cdcfe;&quot;&gt;xl&lt;/span&gt;&lt;/div&gt;&lt;div&gt;&lt;span style=&quot;color: #9cdcfe;&quot;&gt;fxFlex&lt;/span&gt;&lt;span style=&quot;color: #cccccc;&quot;&gt;.&lt;/span&gt;&lt;span style=&quot;color: #9cdcfe;&quot;&gt;gt&lt;/span&gt;&lt;span style=&quot;color: #d4d4d4;&quot;&gt;-&lt;/span&gt;&lt;span style=&quot;color: #9cdcfe;&quot;&gt;xs&lt;/span&gt;&lt;span style=&quot;color: #cccccc;&quot;&gt; , &lt;/span&gt;&lt;span style=&quot;color: #9cdcfe;&quot;&gt;fxFlex&lt;/span&gt;&lt;span style=&quot;color: #cccccc;&quot;&gt;.&lt;/span&gt;&lt;span style=&quot;color: #9cdcfe;&quot;&gt;gt&lt;/span&gt;&lt;span style=&quot;color: #d4d4d4;&quot;&gt;-&lt;/span&gt;&lt;span style=&quot;color: #9cdcfe;&quot;&gt;sm&lt;/span&gt;&lt;span style=&quot;color: #cccccc;&quot;&gt;, &lt;/span&gt;&lt;span style=&quot;color: #9cdcfe;&quot;&gt;fxFlex&lt;/span&gt;&lt;span style=&quot;color: #cccccc;&quot;&gt;.&lt;/span&gt;&lt;span style=&quot;color: #9cdcfe;&quot;&gt;gt&lt;/span&gt;&lt;span style=&quot;color: #d4d4d4;&quot;&gt;-&lt;/span&gt;&lt;span style=&quot;color: #9cdcfe;&quot;&gt;md&lt;/span&gt;&lt;span style=&quot;color: #cccccc;&quot;&gt;, &lt;/span&gt;&lt;span style=&quot;color: #9cdcfe;&quot;&gt;fxFlex&lt;/span&gt;&lt;span style=&quot;color: #cccccc;&quot;&gt;.&lt;/span&gt;&lt;span style=&quot;color: #9cdcfe;&quot;&gt;gt&lt;/span&gt;&lt;span style=&quot;color: #d4d4d4;&quot;&gt;-&lt;/span&gt;&lt;span style=&quot;color: #9cdcfe;&quot;&gt;lg&lt;/span&gt;&lt;span style=&quot;color: #cccccc;&quot;&gt;, &lt;/span&gt;&lt;span style=&quot;color: #9cdcfe;&quot;&gt;fxFlex&lt;/span&gt;&lt;span style=&quot;color: #cccccc;&quot;&gt;.&lt;/span&gt;&lt;span style=&quot;color: #9cdcfe;&quot;&gt;gt&lt;/span&gt;&lt;span style=&quot;color: #d4d4d4;&quot;&gt;-&lt;/span&gt;&lt;span style=&quot;color: #9cdcfe;&quot;&gt;xl&lt;/span&gt;&lt;/div&gt;&lt;div&gt;&lt;span style=&quot;color: #6a9955;&quot;&gt;//classes: fx-flex-10, fx-flex-20,...&lt;/span&gt;&lt;/div&gt;&lt;div&gt;&lt;span style=&quot;color: #6a9955;&quot;&gt;//fx-xs-flex-10, fx-xs-flex-20,...&lt;/span&gt;&lt;/div&gt;&lt;br&gt;&lt;div&gt;&lt;span style=&quot;color: #9cdcfe;&quot;&gt;fxLayoutGap&lt;/span&gt;&lt;span style=&quot;color: #cccccc;&quot;&gt; &lt;/span&gt;&lt;span style=&quot;color: #d4d4d4;&quot;&gt;=&lt;/span&gt;&lt;span style=&quot;color: #cccccc;&quot;&gt; &lt;/span&gt;&lt;span style=&quot;color: #ce9178;&quot;&gt;&quot;10px&quot;&lt;/span&gt;&lt;span style=&quot;color: #cccccc;&quot;&gt; &lt;/span&gt;&lt;span style=&quot;color: #6a9955;&quot;&gt;// accept values in range [0,100] or [0px,100px]&lt;/span&gt;&lt;/div&gt;&lt;div&gt;&lt;span style=&quot;color: #9cdcfe;&quot;&gt;fxLayoutGap&lt;/span&gt;&lt;span style=&quot;color: #cccccc;&quot;&gt;.&lt;/span&gt;&lt;span style=&quot;color: #9cdcfe;&quot;&gt;xs&lt;/span&gt;&lt;span style=&quot;color: #cccccc;&quot;&gt;, &lt;/span&gt;&lt;span style=&quot;color: #9cdcfe;&quot;&gt;fxLayoutGap&lt;/span&gt;&lt;span style=&quot;color: #cccccc;&quot;&gt;.&lt;/span&gt;&lt;span style=&quot;color: #9cdcfe;&quot;&gt;sm&lt;/span&gt;&lt;span style=&quot;color: #cccccc;&quot;&gt;, &lt;/span&gt;&lt;span style=&quot;color: #9cdcfe;&quot;&gt;fxLayoutGap&lt;/span&gt;&lt;span style=&quot;color: #cccccc;&quot;&gt;.&lt;/span&gt;&lt;span style=&quot;color: #9cdcfe;&quot;&gt;md&lt;/span&gt;&lt;span style=&quot;color: #cccccc;&quot;&gt;, &lt;/span&gt;&lt;span style=&quot;color: #9cdcfe;&quot;&gt;fxLayoutGap&lt;/span&gt;&lt;span style=&quot;color: #cccccc;&quot;&gt;.&lt;/span&gt;&lt;span style=&quot;color: #9cdcfe;&quot;&gt;lg&lt;/span&gt;&lt;span style=&quot;color: #cccccc;&quot;&gt;, &lt;/span&gt;&lt;span style=&quot;color: #9cdcfe;&quot;&gt;fxLayoutGap&lt;/span&gt;&lt;span style=&quot;color: #cccccc;&quot;&gt;.&lt;/span&gt;&lt;span style=&quot;color: #9cdcfe;&quot;&gt;xl&lt;/span&gt;&lt;/div&gt;&lt;div&gt;&lt;span style=&quot;color: #9cdcfe;&quot;&gt;fxLayoutGap&lt;/span&gt;&lt;span style=&quot;color: #cccccc;&quot;&gt;.&lt;/span&gt;&lt;span style=&quot;color: #9cdcfe;&quot;&gt;lt&lt;/span&gt;&lt;span style=&quot;color: #d4d4d4;&quot;&gt;-&lt;/span&gt;&lt;span style=&quot;color: #9cdcfe;&quot;&gt;sm&lt;/span&gt;&lt;span style=&quot;color: #cccccc;&quot;&gt;, &lt;/span&gt;&lt;span style=&quot;color: #9cdcfe;&quot;&gt;fxLayoutGap&lt;/span&gt;&lt;span style=&quot;color: #cccccc;&quot;&gt;.&lt;/span&gt;&lt;span style=&quot;color: #9cdcfe;&quot;&gt;lt&lt;/span&gt;&lt;span style=&quot;color: #d4d4d4;&quot;&gt;-&lt;/span&gt;&lt;span style=&quot;color: #9cdcfe;&quot;&gt;md&lt;/span&gt;&lt;span style=&quot;color: #cccccc;&quot;&gt;, &lt;/span&gt;&lt;span style=&quot;color: #9cdcfe;&quot;&gt;fxLayoutGap&lt;/span&gt;&lt;span style=&quot;color: #cccccc;&quot;&gt;.&lt;/span&gt;&lt;span style=&quot;color: #9cdcfe;&quot;&gt;lt&lt;/span&gt;&lt;span style=&quot;color: #d4d4d4;&quot;&gt;-&lt;/span&gt;&lt;span style=&quot;color: #9cdcfe;&quot;&gt;lg&lt;/span&gt;&lt;span style=&quot;color: #cccccc;&quot;&gt;, &lt;/span&gt;&lt;span style=&quot;color: #9cdcfe;&quot;&gt;fxLayoutGap&lt;/span&gt;&lt;span style=&quot;color: #cccccc;&quot;&gt;.&lt;/span&gt;&lt;span style=&quot;color: #9cdcfe;&quot;&gt;lt&lt;/span&gt;&lt;span style=&quot;color: #d4d4d4;&quot;&gt;-&lt;/span&gt;&lt;span style=&quot;color: #9cdcfe;&quot;&gt;xl&lt;/span&gt;&lt;/div&gt;&lt;div&gt;&lt;span style=&quot;color: #9cdcfe;&quot;&gt;fxLayoutGap&lt;/span&gt;&lt;span style=&quot;color: #cccccc;&quot;&gt;.&lt;/span&gt;&lt;span style=&quot;color: #9cdcfe;&quot;&gt;gt&lt;/span&gt;&lt;span style=&quot;color: #d4d4d4;&quot;&gt;-&lt;/span&gt;&lt;span style=&quot;color: #9cdcfe;&quot;&gt;xs&lt;/span&gt;&lt;span style=&quot;color: #cccccc;&quot;&gt; , &lt;/span&gt;&lt;span style=&quot;color: #9cdcfe;&quot;&gt;fxLayoutGap&lt;/span&gt;&lt;span style=&quot;color: #cccccc;&quot;&gt;.&lt;/span&gt;&lt;span style=&quot;color: #9cdcfe;&quot;&gt;gt&lt;/span&gt;&lt;span style=&quot;color: #d4d4d4;&quot;&gt;-&lt;/span&gt;&lt;span style=&quot;color: #9cdcfe;&quot;&gt;sm&lt;/span&gt;&lt;span style=&quot;color: #cccccc;&quot;&gt;, &lt;/span&gt;&lt;span style=&quot;color: #9cdcfe;&quot;&gt;fxLayoutGap&lt;/span&gt;&lt;span style=&quot;color: #cccccc;&quot;&gt;.&lt;/span&gt;&lt;span style=&quot;color: #9cdcfe;&quot;&gt;gt&lt;/span&gt;&lt;span style=&quot;color: #d4d4d4;&quot;&gt;-&lt;/span&gt;&lt;span style=&quot;color: #9cdcfe;&quot;&gt;md&lt;/span&gt;&lt;span style=&quot;color: #cccccc;&quot;&gt;, &lt;/span&gt;&lt;span style=&quot;color: #9cdcfe;&quot;&gt;fxLayoutGap&lt;/span&gt;&lt;span style=&quot;color: #cccccc;&quot;&gt;.&lt;/span&gt;&lt;span style=&quot;color: #9cdcfe;&quot;&gt;gt&lt;/span&gt;&lt;span style=&quot;color: #d4d4d4;&quot;&gt;-&lt;/span&gt;&lt;span style=&quot;color: #9cdcfe;&quot;&gt;lg&lt;/span&gt;&lt;span style=&quot;color: #cccccc;&quot;&gt;, &lt;/span&gt;&lt;span style=&quot;color: #9cdcfe;&quot;&gt;fxLayoutGap&lt;/span&gt;&lt;span style=&quot;color: #cccccc;&quot;&gt;.&lt;/span&gt;&lt;span style=&quot;color: #9cdcfe;&quot;&gt;gt&lt;/span&gt;&lt;span style=&quot;color: #d4d4d4;&quot;&gt;-&lt;/span&gt;&lt;span style=&quot;color: #9cdcfe;&quot;&gt;xl&lt;/span&gt;&lt;/div&gt;&lt;div&gt;&lt;span style=&quot;color: #6a9955;&quot;&gt;//classes: g-10, g-20,...&lt;/span&gt;&lt;/div&gt;&lt;div&gt;&lt;span style=&quot;color: #6a9955;&quot;&gt;//g-xs-10, g-xs-20,...&lt;/span&gt;&lt;/div&gt;&lt;br&gt;&lt;/div&gt;" style="text;whiteSpace=wrap;html=1;" parent="1" vertex="1">
          <mxGeometry x="10" y="180" width="560" height="570" as="geometry" />
        </mxCell>
        <mxCell id="XaYGqAGwIANo_IDL3DV4-1" value="Warning: bundle initial exceeded maximum budget. Budget 3.15 MB was not met by 286.95 kB with a total of 3.43 MB.&#xa;&#xa;Warning: bundle initial exceeded maximum budget. Budget 3.15 MB was not met by 242.59 kB with a total of 3.39 MB." style="text;whiteSpace=wrap;" vertex="1" parent="1">
          <mxGeometry x="750" y="-750" width="560" height="140" as="geometry" />
        </mxCell>
      </root>
    </mxGraphModel>
  </diagram>
</mxfile>
